<?xml version="1.0" encoding="utf-8" standalone="no"?>
<!DOCTYPE svg PUBLIC "-//W3C//DTD SVG 1.1//EN"
  "http://www.w3.org/Graphics/SVG/1.1/DTD/svg11.dtd">
<svg xmlns:xlink="http://www.w3.org/1999/xlink" width="449.722946pt" height="331.01225pt" viewBox="0 0 449.722946 331.01225" xmlns="http://www.w3.org/2000/svg" version="1.1">
 <metadata>
  <rdf:RDF xmlns:dc="http://purl.org/dc/elements/1.1/" xmlns:cc="http://creativecommons.org/ns#" xmlns:rdf="http://www.w3.org/1999/02/22-rdf-syntax-ns#">
   <cc:Work>
    <dc:type rdf:resource="http://purl.org/dc/dcmitype/StillImage"/>
    <dc:date>2024-01-28T17:44:49.472159</dc:date>
    <dc:format>image/svg+xml</dc:format>
    <dc:creator>
     <cc:Agent>
      <dc:title>Matplotlib v3.8.2, https://matplotlib.org/</dc:title>
     </cc:Agent>
    </dc:creator>
   </cc:Work>
  </rdf:RDF>
 </metadata>
 <defs>
  <style type="text/css">*{stroke-linejoin: round; stroke-linecap: butt}</style>
 </defs>
 <g id="figure_1">
  <g id="patch_1">
   <path d="M 0 331.01225 
L 449.722946 331.01225 
L 449.722946 -0 
L 0 -0 
z
" style="fill: #ffffff"/>
  </g>
  <g id="axes_1">
   <g id="patch_2">
    <path d="M 51.4 292.034125 
L 442.522946 292.034125 
L 442.522946 36.978125 
L 51.4 36.978125 
z
" style="fill: #ffffff"/>
   </g>
   <g id="axes_2">
    <g id="patch_3">
     <path d="M 51.4 36.978125 
L 442.522946 36.978125 
L 442.522946 36.978125 
L 51.4 36.978125 
z
" style="fill: #ffffff"/>
    </g>
    <g id="matplotlib.axis_1">
     <g id="xtick_1">
      <g id="line2d_1">
       <defs>
        <path id="mb3a3b3d232" d="M 0 0 
L 0 -3.5 
" style="stroke: #000000; stroke-width: 0.8"/>
       </defs>
       <g>
        <use xlink:href="#mb3a3b3d232" x="69.178316" y="36.978125" style="stroke: #000000; stroke-width: 0.8"/>
       </g>
      </g>
      <g id="text_1">
       <!-- 11.61 -->
       <g transform="translate(54.864253 27.898437) scale(0.1 -0.1)">
        <defs>
         <path id="DejaVuSans-31" d="M 794 531 
L 1825 531 
L 1825 4091 
L 703 3866 
L 703 4441 
L 1819 4666 
L 2450 4666 
L 2450 531 
L 3481 531 
L 3481 0 
L 794 0 
L 794 531 
z
" transform="scale(0.015625)"/>
         <path id="DejaVuSans-2e" d="M 684 794 
L 1344 794 
L 1344 0 
L 684 0 
L 684 794 
z
" transform="scale(0.015625)"/>
         <path id="DejaVuSans-36" d="M 2113 2584 
Q 1688 2584 1439 2293 
Q 1191 2003 1191 1497 
Q 1191 994 1439 701 
Q 1688 409 2113 409 
Q 2538 409 2786 701 
Q 3034 994 3034 1497 
Q 3034 2003 2786 2293 
Q 2538 2584 2113 2584 
z
M 3366 4563 
L 3366 3988 
Q 3128 4100 2886 4159 
Q 2644 4219 2406 4219 
Q 1781 4219 1451 3797 
Q 1122 3375 1075 2522 
Q 1259 2794 1537 2939 
Q 1816 3084 2150 3084 
Q 2853 3084 3261 2657 
Q 3669 2231 3669 1497 
Q 3669 778 3244 343 
Q 2819 -91 2113 -91 
Q 1303 -91 875 529 
Q 447 1150 447 2328 
Q 447 3434 972 4092 
Q 1497 4750 2381 4750 
Q 2619 4750 2861 4703 
Q 3103 4656 3366 4563 
z
" transform="scale(0.015625)"/>
        </defs>
        <use xlink:href="#DejaVuSans-31"/>
        <use xlink:href="#DejaVuSans-31" x="63.623047"/>
        <use xlink:href="#DejaVuSans-2e" x="127.246094"/>
        <use xlink:href="#DejaVuSans-36" x="159.033203"/>
        <use xlink:href="#DejaVuSans-31" x="222.65625"/>
       </g>
      </g>
     </g>
     <g id="xtick_2">
      <g id="line2d_2">
       <g>
        <use xlink:href="#mb3a3b3d232" x="113.624105" y="36.978125" style="stroke: #000000; stroke-width: 0.8"/>
       </g>
      </g>
      <g id="text_2">
       <!-- 9.29 -->
       <g transform="translate(102.491293 27.898437) scale(0.1 -0.1)">
        <defs>
         <path id="DejaVuSans-39" d="M 703 97 
L 703 672 
Q 941 559 1184 500 
Q 1428 441 1663 441 
Q 2288 441 2617 861 
Q 2947 1281 2994 2138 
Q 2813 1869 2534 1725 
Q 2256 1581 1919 1581 
Q 1219 1581 811 2004 
Q 403 2428 403 3163 
Q 403 3881 828 4315 
Q 1253 4750 1959 4750 
Q 2769 4750 3195 4129 
Q 3622 3509 3622 2328 
Q 3622 1225 3098 567 
Q 2575 -91 1691 -91 
Q 1453 -91 1209 -44 
Q 966 3 703 97 
z
M 1959 2075 
Q 2384 2075 2632 2365 
Q 2881 2656 2881 3163 
Q 2881 3666 2632 3958 
Q 2384 4250 1959 4250 
Q 1534 4250 1286 3958 
Q 1038 3666 1038 3163 
Q 1038 2656 1286 2365 
Q 1534 2075 1959 2075 
z
" transform="scale(0.015625)"/>
         <path id="DejaVuSans-32" d="M 1228 531 
L 3431 531 
L 3431 0 
L 469 0 
L 469 531 
Q 828 903 1448 1529 
Q 2069 2156 2228 2338 
Q 2531 2678 2651 2914 
Q 2772 3150 2772 3378 
Q 2772 3750 2511 3984 
Q 2250 4219 1831 4219 
Q 1534 4219 1204 4116 
Q 875 4013 500 3803 
L 500 4441 
Q 881 4594 1212 4672 
Q 1544 4750 1819 4750 
Q 2544 4750 2975 4387 
Q 3406 4025 3406 3419 
Q 3406 3131 3298 2873 
Q 3191 2616 2906 2266 
Q 2828 2175 2409 1742 
Q 1991 1309 1228 531 
z
" transform="scale(0.015625)"/>
        </defs>
        <use xlink:href="#DejaVuSans-39"/>
        <use xlink:href="#DejaVuSans-2e" x="63.623047"/>
        <use xlink:href="#DejaVuSans-32" x="95.410156"/>
        <use xlink:href="#DejaVuSans-39" x="159.033203"/>
       </g>
      </g>
     </g>
     <g id="xtick_3">
      <g id="line2d_3">
       <g>
        <use xlink:href="#mb3a3b3d232" x="158.069894" y="36.978125" style="stroke: #000000; stroke-width: 0.8"/>
       </g>
      </g>
      <g id="text_3">
       <!-- 7.74 -->
       <g transform="translate(146.937082 27.898437) scale(0.1 -0.1)">
        <defs>
         <path id="DejaVuSans-37" d="M 525 4666 
L 3525 4666 
L 3525 4397 
L 1831 0 
L 1172 0 
L 2766 4134 
L 525 4134 
L 525 4666 
z
" transform="scale(0.015625)"/>
         <path id="DejaVuSans-34" d="M 2419 4116 
L 825 1625 
L 2419 1625 
L 2419 4116 
z
M 2253 4666 
L 3047 4666 
L 3047 1625 
L 3713 1625 
L 3713 1100 
L 3047 1100 
L 3047 0 
L 2419 0 
L 2419 1100 
L 313 1100 
L 313 1709 
L 2253 4666 
z
" transform="scale(0.015625)"/>
        </defs>
        <use xlink:href="#DejaVuSans-37"/>
        <use xlink:href="#DejaVuSans-2e" x="63.623047"/>
        <use xlink:href="#DejaVuSans-37" x="95.410156"/>
        <use xlink:href="#DejaVuSans-34" x="159.033203"/>
       </g>
      </g>
     </g>
     <g id="xtick_4">
      <g id="line2d_4">
       <g>
        <use xlink:href="#mb3a3b3d232" x="202.515684" y="36.978125" style="stroke: #000000; stroke-width: 0.8"/>
       </g>
      </g>
      <g id="text_4">
       <!-- 6.63 -->
       <g transform="translate(191.382871 27.898437) scale(0.1 -0.1)">
        <defs>
         <path id="DejaVuSans-33" d="M 2597 2516 
Q 3050 2419 3304 2112 
Q 3559 1806 3559 1356 
Q 3559 666 3084 287 
Q 2609 -91 1734 -91 
Q 1441 -91 1130 -33 
Q 819 25 488 141 
L 488 750 
Q 750 597 1062 519 
Q 1375 441 1716 441 
Q 2309 441 2620 675 
Q 2931 909 2931 1356 
Q 2931 1769 2642 2001 
Q 2353 2234 1838 2234 
L 1294 2234 
L 1294 2753 
L 1863 2753 
Q 2328 2753 2575 2939 
Q 2822 3125 2822 3475 
Q 2822 3834 2567 4026 
Q 2313 4219 1838 4219 
Q 1578 4219 1281 4162 
Q 984 4106 628 3988 
L 628 4550 
Q 988 4650 1302 4700 
Q 1616 4750 1894 4750 
Q 2613 4750 3031 4423 
Q 3450 4097 3450 3541 
Q 3450 3153 3228 2886 
Q 3006 2619 2597 2516 
z
" transform="scale(0.015625)"/>
        </defs>
        <use xlink:href="#DejaVuSans-36"/>
        <use xlink:href="#DejaVuSans-2e" x="63.623047"/>
        <use xlink:href="#DejaVuSans-36" x="95.410156"/>
        <use xlink:href="#DejaVuSans-33" x="159.033203"/>
       </g>
      </g>
     </g>
     <g id="xtick_5">
      <g id="line2d_5">
       <g>
        <use xlink:href="#mb3a3b3d232" x="246.961473" y="36.978125" style="stroke: #000000; stroke-width: 0.8"/>
       </g>
      </g>
      <g id="text_5">
       <!-- 5.80 -->
       <g transform="translate(235.828661 27.898437) scale(0.1 -0.1)">
        <defs>
         <path id="DejaVuSans-35" d="M 691 4666 
L 3169 4666 
L 3169 4134 
L 1269 4134 
L 1269 2991 
Q 1406 3038 1543 3061 
Q 1681 3084 1819 3084 
Q 2600 3084 3056 2656 
Q 3513 2228 3513 1497 
Q 3513 744 3044 326 
Q 2575 -91 1722 -91 
Q 1428 -91 1123 -41 
Q 819 9 494 109 
L 494 744 
Q 775 591 1075 516 
Q 1375 441 1709 441 
Q 2250 441 2565 725 
Q 2881 1009 2881 1497 
Q 2881 1984 2565 2268 
Q 2250 2553 1709 2553 
Q 1456 2553 1204 2497 
Q 953 2441 691 2322 
L 691 4666 
z
" transform="scale(0.015625)"/>
         <path id="DejaVuSans-38" d="M 2034 2216 
Q 1584 2216 1326 1975 
Q 1069 1734 1069 1313 
Q 1069 891 1326 650 
Q 1584 409 2034 409 
Q 2484 409 2743 651 
Q 3003 894 3003 1313 
Q 3003 1734 2745 1975 
Q 2488 2216 2034 2216 
z
M 1403 2484 
Q 997 2584 770 2862 
Q 544 3141 544 3541 
Q 544 4100 942 4425 
Q 1341 4750 2034 4750 
Q 2731 4750 3128 4425 
Q 3525 4100 3525 3541 
Q 3525 3141 3298 2862 
Q 3072 2584 2669 2484 
Q 3125 2378 3379 2068 
Q 3634 1759 3634 1313 
Q 3634 634 3220 271 
Q 2806 -91 2034 -91 
Q 1263 -91 848 271 
Q 434 634 434 1313 
Q 434 1759 690 2068 
Q 947 2378 1403 2484 
z
M 1172 3481 
Q 1172 3119 1398 2916 
Q 1625 2713 2034 2713 
Q 2441 2713 2670 2916 
Q 2900 3119 2900 3481 
Q 2900 3844 2670 4047 
Q 2441 4250 2034 4250 
Q 1625 4250 1398 4047 
Q 1172 3844 1172 3481 
z
" transform="scale(0.015625)"/>
         <path id="DejaVuSans-30" d="M 2034 4250 
Q 1547 4250 1301 3770 
Q 1056 3291 1056 2328 
Q 1056 1369 1301 889 
Q 1547 409 2034 409 
Q 2525 409 2770 889 
Q 3016 1369 3016 2328 
Q 3016 3291 2770 3770 
Q 2525 4250 2034 4250 
z
M 2034 4750 
Q 2819 4750 3233 4129 
Q 3647 3509 3647 2328 
Q 3647 1150 3233 529 
Q 2819 -91 2034 -91 
Q 1250 -91 836 529 
Q 422 1150 422 2328 
Q 422 3509 836 4129 
Q 1250 4750 2034 4750 
z
" transform="scale(0.015625)"/>
        </defs>
        <use xlink:href="#DejaVuSans-35"/>
        <use xlink:href="#DejaVuSans-2e" x="63.623047"/>
        <use xlink:href="#DejaVuSans-38" x="95.410156"/>
        <use xlink:href="#DejaVuSans-30" x="159.033203"/>
       </g>
      </g>
     </g>
     <g id="xtick_6">
      <g id="line2d_6">
       <g>
        <use xlink:href="#mb3a3b3d232" x="291.407262" y="36.978125" style="stroke: #000000; stroke-width: 0.8"/>
       </g>
      </g>
      <g id="text_6">
       <!-- 5.16 -->
       <g transform="translate(280.27445 27.898437) scale(0.1 -0.1)">
        <use xlink:href="#DejaVuSans-35"/>
        <use xlink:href="#DejaVuSans-2e" x="63.623047"/>
        <use xlink:href="#DejaVuSans-31" x="95.410156"/>
        <use xlink:href="#DejaVuSans-36" x="159.033203"/>
       </g>
      </g>
     </g>
     <g id="xtick_7">
      <g id="line2d_7">
       <g>
        <use xlink:href="#mb3a3b3d232" x="335.853052" y="36.978125" style="stroke: #000000; stroke-width: 0.8"/>
       </g>
      </g>
      <g id="text_7">
       <!-- 4.64 -->
       <g transform="translate(324.720239 27.898437) scale(0.1 -0.1)">
        <use xlink:href="#DejaVuSans-34"/>
        <use xlink:href="#DejaVuSans-2e" x="63.623047"/>
        <use xlink:href="#DejaVuSans-36" x="95.410156"/>
        <use xlink:href="#DejaVuSans-34" x="159.033203"/>
       </g>
      </g>
     </g>
     <g id="xtick_8">
      <g id="line2d_8">
       <g>
        <use xlink:href="#mb3a3b3d232" x="380.298841" y="36.978125" style="stroke: #000000; stroke-width: 0.8"/>
       </g>
      </g>
      <g id="text_8">
       <!-- 4.22 -->
       <g transform="translate(369.166029 27.898437) scale(0.1 -0.1)">
        <use xlink:href="#DejaVuSans-34"/>
        <use xlink:href="#DejaVuSans-2e" x="63.623047"/>
        <use xlink:href="#DejaVuSans-32" x="95.410156"/>
        <use xlink:href="#DejaVuSans-32" x="159.033203"/>
       </g>
      </g>
     </g>
     <g id="xtick_9">
      <g id="line2d_9">
       <g>
        <use xlink:href="#mb3a3b3d232" x="424.74463" y="36.978125" style="stroke: #000000; stroke-width: 0.8"/>
       </g>
      </g>
      <g id="text_9">
       <!-- 3.87 -->
       <g transform="translate(413.611818 27.898437) scale(0.1 -0.1)">
        <use xlink:href="#DejaVuSans-33"/>
        <use xlink:href="#DejaVuSans-2e" x="63.623047"/>
        <use xlink:href="#DejaVuSans-38" x="95.410156"/>
        <use xlink:href="#DejaVuSans-37" x="159.033203"/>
       </g>
      </g>
     </g>
     <g id="text_10">
      <!-- temperature ($10^2$ K) -->
      <g transform="translate(196.261473 16.3) scale(0.1 -0.1)">
       <defs>
        <path id="DejaVuSans-74" d="M 1172 4494 
L 1172 3500 
L 2356 3500 
L 2356 3053 
L 1172 3053 
L 1172 1153 
Q 1172 725 1289 603 
Q 1406 481 1766 481 
L 2356 481 
L 2356 0 
L 1766 0 
Q 1100 0 847 248 
Q 594 497 594 1153 
L 594 3053 
L 172 3053 
L 172 3500 
L 594 3500 
L 594 4494 
L 1172 4494 
z
" transform="scale(0.015625)"/>
        <path id="DejaVuSans-65" d="M 3597 1894 
L 3597 1613 
L 953 1613 
Q 991 1019 1311 708 
Q 1631 397 2203 397 
Q 2534 397 2845 478 
Q 3156 559 3463 722 
L 3463 178 
Q 3153 47 2828 -22 
Q 2503 -91 2169 -91 
Q 1331 -91 842 396 
Q 353 884 353 1716 
Q 353 2575 817 3079 
Q 1281 3584 2069 3584 
Q 2775 3584 3186 3129 
Q 3597 2675 3597 1894 
z
M 3022 2063 
Q 3016 2534 2758 2815 
Q 2500 3097 2075 3097 
Q 1594 3097 1305 2825 
Q 1016 2553 972 2059 
L 3022 2063 
z
" transform="scale(0.015625)"/>
        <path id="DejaVuSans-6d" d="M 3328 2828 
Q 3544 3216 3844 3400 
Q 4144 3584 4550 3584 
Q 5097 3584 5394 3201 
Q 5691 2819 5691 2113 
L 5691 0 
L 5113 0 
L 5113 2094 
Q 5113 2597 4934 2840 
Q 4756 3084 4391 3084 
Q 3944 3084 3684 2787 
Q 3425 2491 3425 1978 
L 3425 0 
L 2847 0 
L 2847 2094 
Q 2847 2600 2669 2842 
Q 2491 3084 2119 3084 
Q 1678 3084 1418 2786 
Q 1159 2488 1159 1978 
L 1159 0 
L 581 0 
L 581 3500 
L 1159 3500 
L 1159 2956 
Q 1356 3278 1631 3431 
Q 1906 3584 2284 3584 
Q 2666 3584 2933 3390 
Q 3200 3197 3328 2828 
z
" transform="scale(0.015625)"/>
        <path id="DejaVuSans-70" d="M 1159 525 
L 1159 -1331 
L 581 -1331 
L 581 3500 
L 1159 3500 
L 1159 2969 
Q 1341 3281 1617 3432 
Q 1894 3584 2278 3584 
Q 2916 3584 3314 3078 
Q 3713 2572 3713 1747 
Q 3713 922 3314 415 
Q 2916 -91 2278 -91 
Q 1894 -91 1617 61 
Q 1341 213 1159 525 
z
M 3116 1747 
Q 3116 2381 2855 2742 
Q 2594 3103 2138 3103 
Q 1681 3103 1420 2742 
Q 1159 2381 1159 1747 
Q 1159 1113 1420 752 
Q 1681 391 2138 391 
Q 2594 391 2855 752 
Q 3116 1113 3116 1747 
z
" transform="scale(0.015625)"/>
        <path id="DejaVuSans-72" d="M 2631 2963 
Q 2534 3019 2420 3045 
Q 2306 3072 2169 3072 
Q 1681 3072 1420 2755 
Q 1159 2438 1159 1844 
L 1159 0 
L 581 0 
L 581 3500 
L 1159 3500 
L 1159 2956 
Q 1341 3275 1631 3429 
Q 1922 3584 2338 3584 
Q 2397 3584 2469 3576 
Q 2541 3569 2628 3553 
L 2631 2963 
z
" transform="scale(0.015625)"/>
        <path id="DejaVuSans-61" d="M 2194 1759 
Q 1497 1759 1228 1600 
Q 959 1441 959 1056 
Q 959 750 1161 570 
Q 1363 391 1709 391 
Q 2188 391 2477 730 
Q 2766 1069 2766 1631 
L 2766 1759 
L 2194 1759 
z
M 3341 1997 
L 3341 0 
L 2766 0 
L 2766 531 
Q 2569 213 2275 61 
Q 1981 -91 1556 -91 
Q 1019 -91 701 211 
Q 384 513 384 1019 
Q 384 1609 779 1909 
Q 1175 2209 1959 2209 
L 2766 2209 
L 2766 2266 
Q 2766 2663 2505 2880 
Q 2244 3097 1772 3097 
Q 1472 3097 1187 3025 
Q 903 2953 641 2809 
L 641 3341 
Q 956 3463 1253 3523 
Q 1550 3584 1831 3584 
Q 2591 3584 2966 3190 
Q 3341 2797 3341 1997 
z
" transform="scale(0.015625)"/>
        <path id="DejaVuSans-75" d="M 544 1381 
L 544 3500 
L 1119 3500 
L 1119 1403 
Q 1119 906 1312 657 
Q 1506 409 1894 409 
Q 2359 409 2629 706 
Q 2900 1003 2900 1516 
L 2900 3500 
L 3475 3500 
L 3475 0 
L 2900 0 
L 2900 538 
Q 2691 219 2414 64 
Q 2138 -91 1772 -91 
Q 1169 -91 856 284 
Q 544 659 544 1381 
z
M 1991 3584 
L 1991 3584 
z
" transform="scale(0.015625)"/>
        <path id="DejaVuSans-20" transform="scale(0.015625)"/>
        <path id="DejaVuSans-28" d="M 1984 4856 
Q 1566 4138 1362 3434 
Q 1159 2731 1159 2009 
Q 1159 1288 1364 580 
Q 1569 -128 1984 -844 
L 1484 -844 
Q 1016 -109 783 600 
Q 550 1309 550 2009 
Q 550 2706 781 3412 
Q 1013 4119 1484 4856 
L 1984 4856 
z
" transform="scale(0.015625)"/>
        <path id="DejaVuSans-4b" d="M 628 4666 
L 1259 4666 
L 1259 2694 
L 3353 4666 
L 4166 4666 
L 1850 2491 
L 4331 0 
L 3500 0 
L 1259 2247 
L 1259 0 
L 628 0 
L 628 4666 
z
" transform="scale(0.015625)"/>
        <path id="DejaVuSans-29" d="M 513 4856 
L 1013 4856 
Q 1481 4119 1714 3412 
Q 1947 2706 1947 2009 
Q 1947 1309 1714 600 
Q 1481 -109 1013 -844 
L 513 -844 
Q 928 -128 1133 580 
Q 1338 1288 1338 2009 
Q 1338 2731 1133 3434 
Q 928 4138 513 4856 
z
" transform="scale(0.015625)"/>
       </defs>
       <use xlink:href="#DejaVuSans-74" transform="translate(0 0.765625)"/>
       <use xlink:href="#DejaVuSans-65" transform="translate(39.208984 0.765625)"/>
       <use xlink:href="#DejaVuSans-6d" transform="translate(100.732422 0.765625)"/>
       <use xlink:href="#DejaVuSans-70" transform="translate(198.144531 0.765625)"/>
       <use xlink:href="#DejaVuSans-65" transform="translate(261.621094 0.765625)"/>
       <use xlink:href="#DejaVuSans-72" transform="translate(323.144531 0.765625)"/>
       <use xlink:href="#DejaVuSans-61" transform="translate(364.257812 0.765625)"/>
       <use xlink:href="#DejaVuSans-74" transform="translate(425.537109 0.765625)"/>
       <use xlink:href="#DejaVuSans-75" transform="translate(464.746094 0.765625)"/>
       <use xlink:href="#DejaVuSans-72" transform="translate(528.125 0.765625)"/>
       <use xlink:href="#DejaVuSans-65" transform="translate(569.238281 0.765625)"/>
       <use xlink:href="#DejaVuSans-20" transform="translate(630.761719 0.765625)"/>
       <use xlink:href="#DejaVuSans-28" transform="translate(662.548828 0.765625)"/>
       <use xlink:href="#DejaVuSans-31" transform="translate(701.5625 0.765625)"/>
       <use xlink:href="#DejaVuSans-30" transform="translate(765.185547 0.765625)"/>
       <use xlink:href="#DejaVuSans-32" transform="translate(829.765625 39.046875) scale(0.7)"/>
       <use xlink:href="#DejaVuSans-20" transform="translate(877.036133 0.765625)"/>
       <use xlink:href="#DejaVuSans-4b" transform="translate(908.823242 0.765625)"/>
       <use xlink:href="#DejaVuSans-29" transform="translate(974.399414 0.765625)"/>
      </g>
     </g>
    </g>
    <g id="matplotlib.axis_2"/>
    <g id="patch_4">
     <path d="M 442.522946 36.978125 
L 51.4 36.978125 
" style="fill: none; stroke: #000000; stroke-width: 0.8; stroke-linejoin: miter; stroke-linecap: square"/>
    </g>
   </g>
   <g id="matplotlib.axis_3">
    <g id="xtick_10">
     <g id="line2d_10">
      <path d="M 69.178316 292.034125 
L 69.178316 36.978125 
" clip-path="url(#pfa09a6ca21)" style="fill: none; stroke: #b0b0b0; stroke-width: 0.8; stroke-linecap: square"/>
     </g>
     <g id="line2d_11">
      <defs>
       <path id="m6fcb7c3cb6" d="M 0 0 
L 0 3.5 
" style="stroke: #000000; stroke-width: 0.8"/>
      </defs>
      <g>
       <use xlink:href="#m6fcb7c3cb6" x="69.178316" y="292.034125" style="stroke: #000000; stroke-width: 0.8"/>
      </g>
     </g>
     <g id="text_11">
      <!-- 10.0 -->
      <g transform="translate(58.045503 306.632562) scale(0.1 -0.1)">
       <use xlink:href="#DejaVuSans-31"/>
       <use xlink:href="#DejaVuSans-30" x="63.623047"/>
       <use xlink:href="#DejaVuSans-2e" x="127.246094"/>
       <use xlink:href="#DejaVuSans-30" x="159.033203"/>
      </g>
     </g>
    </g>
    <g id="xtick_11">
     <g id="line2d_12">
      <path d="M 113.624105 292.034125 
L 113.624105 36.978125 
" clip-path="url(#pfa09a6ca21)" style="fill: none; stroke: #b0b0b0; stroke-width: 0.8; stroke-linecap: square"/>
     </g>
     <g id="line2d_13">
      <g>
       <use xlink:href="#m6fcb7c3cb6" x="113.624105" y="292.034125" style="stroke: #000000; stroke-width: 0.8"/>
      </g>
     </g>
     <g id="text_12">
      <!-- 12.5 -->
      <g transform="translate(102.491293 306.632562) scale(0.1 -0.1)">
       <use xlink:href="#DejaVuSans-31"/>
       <use xlink:href="#DejaVuSans-32" x="63.623047"/>
       <use xlink:href="#DejaVuSans-2e" x="127.246094"/>
       <use xlink:href="#DejaVuSans-35" x="159.033203"/>
      </g>
     </g>
    </g>
    <g id="xtick_12">
     <g id="line2d_14">
      <path d="M 158.069894 292.034125 
L 158.069894 36.978125 
" clip-path="url(#pfa09a6ca21)" style="fill: none; stroke: #b0b0b0; stroke-width: 0.8; stroke-linecap: square"/>
     </g>
     <g id="line2d_15">
      <g>
       <use xlink:href="#m6fcb7c3cb6" x="158.069894" y="292.034125" style="stroke: #000000; stroke-width: 0.8"/>
      </g>
     </g>
     <g id="text_13">
      <!-- 15.0 -->
      <g transform="translate(146.937082 306.632562) scale(0.1 -0.1)">
       <use xlink:href="#DejaVuSans-31"/>
       <use xlink:href="#DejaVuSans-35" x="63.623047"/>
       <use xlink:href="#DejaVuSans-2e" x="127.246094"/>
       <use xlink:href="#DejaVuSans-30" x="159.033203"/>
      </g>
     </g>
    </g>
    <g id="xtick_13">
     <g id="line2d_16">
      <path d="M 202.515684 292.034125 
L 202.515684 36.978125 
" clip-path="url(#pfa09a6ca21)" style="fill: none; stroke: #b0b0b0; stroke-width: 0.8; stroke-linecap: square"/>
     </g>
     <g id="line2d_17">
      <g>
       <use xlink:href="#m6fcb7c3cb6" x="202.515684" y="292.034125" style="stroke: #000000; stroke-width: 0.8"/>
      </g>
     </g>
     <g id="text_14">
      <!-- 17.5 -->
      <g transform="translate(191.382871 306.632562) scale(0.1 -0.1)">
       <use xlink:href="#DejaVuSans-31"/>
       <use xlink:href="#DejaVuSans-37" x="63.623047"/>
       <use xlink:href="#DejaVuSans-2e" x="127.246094"/>
       <use xlink:href="#DejaVuSans-35" x="159.033203"/>
      </g>
     </g>
    </g>
    <g id="xtick_14">
     <g id="line2d_18">
      <path d="M 246.961473 292.034125 
L 246.961473 36.978125 
" clip-path="url(#pfa09a6ca21)" style="fill: none; stroke: #b0b0b0; stroke-width: 0.8; stroke-linecap: square"/>
     </g>
     <g id="line2d_19">
      <g>
       <use xlink:href="#m6fcb7c3cb6" x="246.961473" y="292.034125" style="stroke: #000000; stroke-width: 0.8"/>
      </g>
     </g>
     <g id="text_15">
      <!-- 20.0 -->
      <g transform="translate(235.828661 306.632562) scale(0.1 -0.1)">
       <use xlink:href="#DejaVuSans-32"/>
       <use xlink:href="#DejaVuSans-30" x="63.623047"/>
       <use xlink:href="#DejaVuSans-2e" x="127.246094"/>
       <use xlink:href="#DejaVuSans-30" x="159.033203"/>
      </g>
     </g>
    </g>
    <g id="xtick_15">
     <g id="line2d_20">
      <path d="M 291.407262 292.034125 
L 291.407262 36.978125 
" clip-path="url(#pfa09a6ca21)" style="fill: none; stroke: #b0b0b0; stroke-width: 0.8; stroke-linecap: square"/>
     </g>
     <g id="line2d_21">
      <g>
       <use xlink:href="#m6fcb7c3cb6" x="291.407262" y="292.034125" style="stroke: #000000; stroke-width: 0.8"/>
      </g>
     </g>
     <g id="text_16">
      <!-- 22.5 -->
      <g transform="translate(280.27445 306.632562) scale(0.1 -0.1)">
       <use xlink:href="#DejaVuSans-32"/>
       <use xlink:href="#DejaVuSans-32" x="63.623047"/>
       <use xlink:href="#DejaVuSans-2e" x="127.246094"/>
       <use xlink:href="#DejaVuSans-35" x="159.033203"/>
      </g>
     </g>
    </g>
    <g id="xtick_16">
     <g id="line2d_22">
      <path d="M 335.853052 292.034125 
L 335.853052 36.978125 
" clip-path="url(#pfa09a6ca21)" style="fill: none; stroke: #b0b0b0; stroke-width: 0.8; stroke-linecap: square"/>
     </g>
     <g id="line2d_23">
      <g>
       <use xlink:href="#m6fcb7c3cb6" x="335.853052" y="292.034125" style="stroke: #000000; stroke-width: 0.8"/>
      </g>
     </g>
     <g id="text_17">
      <!-- 25.0 -->
      <g transform="translate(324.720239 306.632562) scale(0.1 -0.1)">
       <use xlink:href="#DejaVuSans-32"/>
       <use xlink:href="#DejaVuSans-35" x="63.623047"/>
       <use xlink:href="#DejaVuSans-2e" x="127.246094"/>
       <use xlink:href="#DejaVuSans-30" x="159.033203"/>
      </g>
     </g>
    </g>
    <g id="xtick_17">
     <g id="line2d_24">
      <path d="M 380.298841 292.034125 
L 380.298841 36.978125 
" clip-path="url(#pfa09a6ca21)" style="fill: none; stroke: #b0b0b0; stroke-width: 0.8; stroke-linecap: square"/>
     </g>
     <g id="line2d_25">
      <g>
       <use xlink:href="#m6fcb7c3cb6" x="380.298841" y="292.034125" style="stroke: #000000; stroke-width: 0.8"/>
      </g>
     </g>
     <g id="text_18">
      <!-- 27.5 -->
      <g transform="translate(369.166029 306.632562) scale(0.1 -0.1)">
       <use xlink:href="#DejaVuSans-32"/>
       <use xlink:href="#DejaVuSans-37" x="63.623047"/>
       <use xlink:href="#DejaVuSans-2e" x="127.246094"/>
       <use xlink:href="#DejaVuSans-35" x="159.033203"/>
      </g>
     </g>
    </g>
    <g id="xtick_18">
     <g id="line2d_26">
      <path d="M 424.74463 292.034125 
L 424.74463 36.978125 
" clip-path="url(#pfa09a6ca21)" style="fill: none; stroke: #b0b0b0; stroke-width: 0.8; stroke-linecap: square"/>
     </g>
     <g id="line2d_27">
      <g>
       <use xlink:href="#m6fcb7c3cb6" x="424.74463" y="292.034125" style="stroke: #000000; stroke-width: 0.8"/>
      </g>
     </g>
     <g id="text_19">
      <!-- 30.0 -->
      <g transform="translate(413.611818 306.632562) scale(0.1 -0.1)">
       <use xlink:href="#DejaVuSans-33"/>
       <use xlink:href="#DejaVuSans-30" x="63.623047"/>
       <use xlink:href="#DejaVuSans-2e" x="127.246094"/>
       <use xlink:href="#DejaVuSans-30" x="159.033203"/>
      </g>
     </g>
    </g>
    <g id="text_20">
     <!-- inverse temperature ($\beta$) (eV$^{-1}$) -->
     <g transform="translate(169.461473 321.71225) scale(0.1 -0.1)">
      <defs>
       <path id="DejaVuSans-69" d="M 603 3500 
L 1178 3500 
L 1178 0 
L 603 0 
L 603 3500 
z
M 603 4863 
L 1178 4863 
L 1178 4134 
L 603 4134 
L 603 4863 
z
" transform="scale(0.015625)"/>
       <path id="DejaVuSans-6e" d="M 3513 2113 
L 3513 0 
L 2938 0 
L 2938 2094 
Q 2938 2591 2744 2837 
Q 2550 3084 2163 3084 
Q 1697 3084 1428 2787 
Q 1159 2491 1159 1978 
L 1159 0 
L 581 0 
L 581 3500 
L 1159 3500 
L 1159 2956 
Q 1366 3272 1645 3428 
Q 1925 3584 2291 3584 
Q 2894 3584 3203 3211 
Q 3513 2838 3513 2113 
z
" transform="scale(0.015625)"/>
       <path id="DejaVuSans-76" d="M 191 3500 
L 800 3500 
L 1894 563 
L 2988 3500 
L 3597 3500 
L 2284 0 
L 1503 0 
L 191 3500 
z
" transform="scale(0.015625)"/>
       <path id="DejaVuSans-73" d="M 2834 3397 
L 2834 2853 
Q 2591 2978 2328 3040 
Q 2066 3103 1784 3103 
Q 1356 3103 1142 2972 
Q 928 2841 928 2578 
Q 928 2378 1081 2264 
Q 1234 2150 1697 2047 
L 1894 2003 
Q 2506 1872 2764 1633 
Q 3022 1394 3022 966 
Q 3022 478 2636 193 
Q 2250 -91 1575 -91 
Q 1294 -91 989 -36 
Q 684 19 347 128 
L 347 722 
Q 666 556 975 473 
Q 1284 391 1588 391 
Q 1994 391 2212 530 
Q 2431 669 2431 922 
Q 2431 1156 2273 1281 
Q 2116 1406 1581 1522 
L 1381 1569 
Q 847 1681 609 1914 
Q 372 2147 372 2553 
Q 372 3047 722 3315 
Q 1072 3584 1716 3584 
Q 2034 3584 2315 3537 
Q 2597 3491 2834 3397 
z
" transform="scale(0.015625)"/>
       <path id="DejaVuSans-Oblique-3b2" d="M 872 216 
L 572 -1331 
L -6 -1331 
L 928 3478 
Q 1206 4903 2538 4903 
Q 3888 4903 3659 3700 
Q 3503 2844 2894 2531 
Q 3713 2250 3553 1416 
Q 3272 -69 1759 -66 
Q 1097 -63 872 216 
z
M 1019 966 
Q 1259 422 1875 425 
Q 2775 425 2966 1406 
Q 3138 2288 1675 2219 
L 1778 2750 
Q 2909 2731 3106 3750 
Q 3241 4438 2509 4434 
Q 1691 4434 1503 3459 
L 1019 966 
z
" transform="scale(0.015625)"/>
       <path id="DejaVuSans-56" d="M 1831 0 
L 50 4666 
L 709 4666 
L 2188 738 
L 3669 4666 
L 4325 4666 
L 2547 0 
L 1831 0 
z
" transform="scale(0.015625)"/>
       <path id="DejaVuSans-2212" d="M 678 2272 
L 4684 2272 
L 4684 1741 
L 678 1741 
L 678 2272 
z
" transform="scale(0.015625)"/>
      </defs>
      <use xlink:href="#DejaVuSans-69" transform="translate(0 0.684375)"/>
      <use xlink:href="#DejaVuSans-6e" transform="translate(27.783203 0.684375)"/>
      <use xlink:href="#DejaVuSans-76" transform="translate(91.162109 0.684375)"/>
      <use xlink:href="#DejaVuSans-65" transform="translate(150.341797 0.684375)"/>
      <use xlink:href="#DejaVuSans-72" transform="translate(211.865234 0.684375)"/>
      <use xlink:href="#DejaVuSans-73" transform="translate(252.978516 0.684375)"/>
      <use xlink:href="#DejaVuSans-65" transform="translate(305.078125 0.684375)"/>
      <use xlink:href="#DejaVuSans-20" transform="translate(366.601562 0.684375)"/>
      <use xlink:href="#DejaVuSans-74" transform="translate(398.388672 0.684375)"/>
      <use xlink:href="#DejaVuSans-65" transform="translate(437.597656 0.684375)"/>
      <use xlink:href="#DejaVuSans-6d" transform="translate(499.121094 0.684375)"/>
      <use xlink:href="#DejaVuSans-70" transform="translate(596.533203 0.684375)"/>
      <use xlink:href="#DejaVuSans-65" transform="translate(660.009766 0.684375)"/>
      <use xlink:href="#DejaVuSans-72" transform="translate(721.533203 0.684375)"/>
      <use xlink:href="#DejaVuSans-61" transform="translate(762.646484 0.684375)"/>
      <use xlink:href="#DejaVuSans-74" transform="translate(823.925781 0.684375)"/>
      <use xlink:href="#DejaVuSans-75" transform="translate(863.134766 0.684375)"/>
      <use xlink:href="#DejaVuSans-72" transform="translate(926.513672 0.684375)"/>
      <use xlink:href="#DejaVuSans-65" transform="translate(967.626953 0.684375)"/>
      <use xlink:href="#DejaVuSans-20" transform="translate(1029.150391 0.684375)"/>
      <use xlink:href="#DejaVuSans-28" transform="translate(1060.9375 0.684375)"/>
      <use xlink:href="#DejaVuSans-Oblique-3b2" transform="translate(1099.951172 0.684375)"/>
      <use xlink:href="#DejaVuSans-29" transform="translate(1163.769531 0.684375)"/>
      <use xlink:href="#DejaVuSans-20" transform="translate(1202.783203 0.684375)"/>
      <use xlink:href="#DejaVuSans-28" transform="translate(1234.570312 0.684375)"/>
      <use xlink:href="#DejaVuSans-65" transform="translate(1273.583984 0.684375)"/>
      <use xlink:href="#DejaVuSans-56" transform="translate(1335.107422 0.684375)"/>
      <use xlink:href="#DejaVuSans-2212" transform="translate(1404.472656 38.965625) scale(0.7)"/>
      <use xlink:href="#DejaVuSans-31" transform="translate(1463.125 38.965625) scale(0.7)"/>
      <use xlink:href="#DejaVuSans-29" transform="translate(1510.395508 0.684375)"/>
     </g>
    </g>
   </g>
   <g id="matplotlib.axis_4">
    <g id="ytick_1">
     <g id="line2d_28">
      <path d="M 51.4 275.499784 
L 442.522946 275.499784 
" clip-path="url(#pfa09a6ca21)" style="fill: none; stroke: #b0b0b0; stroke-width: 0.8; stroke-linecap: square"/>
     </g>
     <g id="line2d_29">
      <defs>
       <path id="m8292a2d9b2" d="M 0 0 
L -3.5 0 
" style="stroke: #000000; stroke-width: 0.8"/>
      </defs>
      <g>
       <use xlink:href="#m8292a2d9b2" x="51.4" y="275.499784" style="stroke: #000000; stroke-width: 0.8"/>
      </g>
     </g>
     <g id="text_21">
      <!-- $\mathdefault{10^{-7}}$ -->
      <g transform="translate(20.9 279.299003) scale(0.1 -0.1)">
       <use xlink:href="#DejaVuSans-31" transform="translate(0 0.684375)"/>
       <use xlink:href="#DejaVuSans-30" transform="translate(63.623047 0.684375)"/>
       <use xlink:href="#DejaVuSans-2212" transform="translate(128.203125 38.965625) scale(0.7)"/>
       <use xlink:href="#DejaVuSans-37" transform="translate(186.855469 38.965625) scale(0.7)"/>
      </g>
     </g>
    </g>
    <g id="ytick_2">
     <g id="line2d_30">
      <path d="M 51.4 232.594109 
L 442.522946 232.594109 
" clip-path="url(#pfa09a6ca21)" style="fill: none; stroke: #b0b0b0; stroke-width: 0.8; stroke-linecap: square"/>
     </g>
     <g id="line2d_31">
      <g>
       <use xlink:href="#m8292a2d9b2" x="51.4" y="232.594109" style="stroke: #000000; stroke-width: 0.8"/>
      </g>
     </g>
     <g id="text_22">
      <!-- $\mathdefault{10^{-6}}$ -->
      <g transform="translate(20.9 236.393328) scale(0.1 -0.1)">
       <use xlink:href="#DejaVuSans-31" transform="translate(0 0.765625)"/>
       <use xlink:href="#DejaVuSans-30" transform="translate(63.623047 0.765625)"/>
       <use xlink:href="#DejaVuSans-2212" transform="translate(128.203125 39.046875) scale(0.7)"/>
       <use xlink:href="#DejaVuSans-36" transform="translate(186.855469 39.046875) scale(0.7)"/>
      </g>
     </g>
    </g>
    <g id="ytick_3">
     <g id="line2d_32">
      <path d="M 51.4 189.688434 
L 442.522946 189.688434 
" clip-path="url(#pfa09a6ca21)" style="fill: none; stroke: #b0b0b0; stroke-width: 0.8; stroke-linecap: square"/>
     </g>
     <g id="line2d_33">
      <g>
       <use xlink:href="#m8292a2d9b2" x="51.4" y="189.688434" style="stroke: #000000; stroke-width: 0.8"/>
      </g>
     </g>
     <g id="text_23">
      <!-- $\mathdefault{10^{-5}}$ -->
      <g transform="translate(20.9 193.487653) scale(0.1 -0.1)">
       <use xlink:href="#DejaVuSans-31" transform="translate(0 0.684375)"/>
       <use xlink:href="#DejaVuSans-30" transform="translate(63.623047 0.684375)"/>
       <use xlink:href="#DejaVuSans-2212" transform="translate(128.203125 38.965625) scale(0.7)"/>
       <use xlink:href="#DejaVuSans-35" transform="translate(186.855469 38.965625) scale(0.7)"/>
      </g>
     </g>
    </g>
    <g id="ytick_4">
     <g id="line2d_34">
      <path d="M 51.4 146.782759 
L 442.522946 146.782759 
" clip-path="url(#pfa09a6ca21)" style="fill: none; stroke: #b0b0b0; stroke-width: 0.8; stroke-linecap: square"/>
     </g>
     <g id="line2d_35">
      <g>
       <use xlink:href="#m8292a2d9b2" x="51.4" y="146.782759" style="stroke: #000000; stroke-width: 0.8"/>
      </g>
     </g>
     <g id="text_24">
      <!-- $\mathdefault{10^{-4}}$ -->
      <g transform="translate(20.9 150.581978) scale(0.1 -0.1)">
       <use xlink:href="#DejaVuSans-31" transform="translate(0 0.684375)"/>
       <use xlink:href="#DejaVuSans-30" transform="translate(63.623047 0.684375)"/>
       <use xlink:href="#DejaVuSans-2212" transform="translate(128.203125 38.965625) scale(0.7)"/>
       <use xlink:href="#DejaVuSans-34" transform="translate(186.855469 38.965625) scale(0.7)"/>
      </g>
     </g>
    </g>
    <g id="ytick_5">
     <g id="line2d_36">
      <path d="M 51.4 103.877084 
L 442.522946 103.877084 
" clip-path="url(#pfa09a6ca21)" style="fill: none; stroke: #b0b0b0; stroke-width: 0.8; stroke-linecap: square"/>
     </g>
     <g id="line2d_37">
      <g>
       <use xlink:href="#m8292a2d9b2" x="51.4" y="103.877084" style="stroke: #000000; stroke-width: 0.8"/>
      </g>
     </g>
     <g id="text_25">
      <!-- $\mathdefault{10^{-3}}$ -->
      <g transform="translate(20.9 107.676303) scale(0.1 -0.1)">
       <use xlink:href="#DejaVuSans-31" transform="translate(0 0.765625)"/>
       <use xlink:href="#DejaVuSans-30" transform="translate(63.623047 0.765625)"/>
       <use xlink:href="#DejaVuSans-2212" transform="translate(128.203125 39.046875) scale(0.7)"/>
       <use xlink:href="#DejaVuSans-33" transform="translate(186.855469 39.046875) scale(0.7)"/>
      </g>
     </g>
    </g>
    <g id="ytick_6">
     <g id="line2d_38">
      <path d="M 51.4 60.971409 
L 442.522946 60.971409 
" clip-path="url(#pfa09a6ca21)" style="fill: none; stroke: #b0b0b0; stroke-width: 0.8; stroke-linecap: square"/>
     </g>
     <g id="line2d_39">
      <g>
       <use xlink:href="#m8292a2d9b2" x="51.4" y="60.971409" style="stroke: #000000; stroke-width: 0.8"/>
      </g>
     </g>
     <g id="text_26">
      <!-- $\mathdefault{10^{-2}}$ -->
      <g transform="translate(20.9 64.770628) scale(0.1 -0.1)">
       <use xlink:href="#DejaVuSans-31" transform="translate(0 0.765625)"/>
       <use xlink:href="#DejaVuSans-30" transform="translate(63.623047 0.765625)"/>
       <use xlink:href="#DejaVuSans-2212" transform="translate(128.203125 39.046875) scale(0.7)"/>
       <use xlink:href="#DejaVuSans-32" transform="translate(186.855469 39.046875) scale(0.7)"/>
      </g>
     </g>
    </g>
    <g id="ytick_7">
     <g id="line2d_40">
      <defs>
       <path id="mb9c6dde417" d="M 0 0 
L -2 0 
" style="stroke: #000000; stroke-width: 0.6"/>
      </defs>
      <g>
       <use xlink:href="#mb9c6dde417" x="51.4" y="288.415679" style="stroke: #000000; stroke-width: 0.6"/>
      </g>
     </g>
    </g>
    <g id="ytick_8">
     <g id="line2d_41">
      <g>
       <use xlink:href="#mb9c6dde417" x="51.4" y="285.018354" style="stroke: #000000; stroke-width: 0.6"/>
      </g>
     </g>
    </g>
    <g id="ytick_9">
     <g id="line2d_42">
      <g>
       <use xlink:href="#mb9c6dde417" x="51.4" y="282.145957" style="stroke: #000000; stroke-width: 0.6"/>
      </g>
     </g>
    </g>
    <g id="ytick_10">
     <g id="line2d_43">
      <g>
       <use xlink:href="#mb9c6dde417" x="51.4" y="279.657773" style="stroke: #000000; stroke-width: 0.6"/>
      </g>
     </g>
    </g>
    <g id="ytick_11">
     <g id="line2d_44">
      <g>
       <use xlink:href="#mb9c6dde417" x="51.4" y="277.46304" style="stroke: #000000; stroke-width: 0.6"/>
      </g>
     </g>
    </g>
    <g id="ytick_12">
     <g id="line2d_45">
      <g>
       <use xlink:href="#mb9c6dde417" x="51.4" y="262.583889" style="stroke: #000000; stroke-width: 0.6"/>
      </g>
     </g>
    </g>
    <g id="ytick_13">
     <g id="line2d_46">
      <g>
       <use xlink:href="#mb9c6dde417" x="51.4" y="255.028574" style="stroke: #000000; stroke-width: 0.6"/>
      </g>
     </g>
    </g>
    <g id="ytick_14">
     <g id="line2d_47">
      <g>
       <use xlink:href="#mb9c6dde417" x="51.4" y="249.667993" style="stroke: #000000; stroke-width: 0.6"/>
      </g>
     </g>
    </g>
    <g id="ytick_15">
     <g id="line2d_48">
      <g>
       <use xlink:href="#mb9c6dde417" x="51.4" y="245.510004" style="stroke: #000000; stroke-width: 0.6"/>
      </g>
     </g>
    </g>
    <g id="ytick_16">
     <g id="line2d_49">
      <g>
       <use xlink:href="#mb9c6dde417" x="51.4" y="242.112679" style="stroke: #000000; stroke-width: 0.6"/>
      </g>
     </g>
    </g>
    <g id="ytick_17">
     <g id="line2d_50">
      <g>
       <use xlink:href="#mb9c6dde417" x="51.4" y="239.240282" style="stroke: #000000; stroke-width: 0.6"/>
      </g>
     </g>
    </g>
    <g id="ytick_18">
     <g id="line2d_51">
      <g>
       <use xlink:href="#mb9c6dde417" x="51.4" y="236.752098" style="stroke: #000000; stroke-width: 0.6"/>
      </g>
     </g>
    </g>
    <g id="ytick_19">
     <g id="line2d_52">
      <g>
       <use xlink:href="#mb9c6dde417" x="51.4" y="234.557365" style="stroke: #000000; stroke-width: 0.6"/>
      </g>
     </g>
    </g>
    <g id="ytick_20">
     <g id="line2d_53">
      <g>
       <use xlink:href="#mb9c6dde417" x="51.4" y="219.678214" style="stroke: #000000; stroke-width: 0.6"/>
      </g>
     </g>
    </g>
    <g id="ytick_21">
     <g id="line2d_54">
      <g>
       <use xlink:href="#mb9c6dde417" x="51.4" y="212.122899" style="stroke: #000000; stroke-width: 0.6"/>
      </g>
     </g>
    </g>
    <g id="ytick_22">
     <g id="line2d_55">
      <g>
       <use xlink:href="#mb9c6dde417" x="51.4" y="206.762319" style="stroke: #000000; stroke-width: 0.6"/>
      </g>
     </g>
    </g>
    <g id="ytick_23">
     <g id="line2d_56">
      <g>
       <use xlink:href="#mb9c6dde417" x="51.4" y="202.604329" style="stroke: #000000; stroke-width: 0.6"/>
      </g>
     </g>
    </g>
    <g id="ytick_24">
     <g id="line2d_57">
      <g>
       <use xlink:href="#mb9c6dde417" x="51.4" y="199.207004" style="stroke: #000000; stroke-width: 0.6"/>
      </g>
     </g>
    </g>
    <g id="ytick_25">
     <g id="line2d_58">
      <g>
       <use xlink:href="#mb9c6dde417" x="51.4" y="196.334607" style="stroke: #000000; stroke-width: 0.6"/>
      </g>
     </g>
    </g>
    <g id="ytick_26">
     <g id="line2d_59">
      <g>
       <use xlink:href="#mb9c6dde417" x="51.4" y="193.846423" style="stroke: #000000; stroke-width: 0.6"/>
      </g>
     </g>
    </g>
    <g id="ytick_27">
     <g id="line2d_60">
      <g>
       <use xlink:href="#mb9c6dde417" x="51.4" y="191.65169" style="stroke: #000000; stroke-width: 0.6"/>
      </g>
     </g>
    </g>
    <g id="ytick_28">
     <g id="line2d_61">
      <g>
       <use xlink:href="#mb9c6dde417" x="51.4" y="176.772539" style="stroke: #000000; stroke-width: 0.6"/>
      </g>
     </g>
    </g>
    <g id="ytick_29">
     <g id="line2d_62">
      <g>
       <use xlink:href="#mb9c6dde417" x="51.4" y="169.217224" style="stroke: #000000; stroke-width: 0.6"/>
      </g>
     </g>
    </g>
    <g id="ytick_30">
     <g id="line2d_63">
      <g>
       <use xlink:href="#mb9c6dde417" x="51.4" y="163.856644" style="stroke: #000000; stroke-width: 0.6"/>
      </g>
     </g>
    </g>
    <g id="ytick_31">
     <g id="line2d_64">
      <g>
       <use xlink:href="#mb9c6dde417" x="51.4" y="159.698654" style="stroke: #000000; stroke-width: 0.6"/>
      </g>
     </g>
    </g>
    <g id="ytick_32">
     <g id="line2d_65">
      <g>
       <use xlink:href="#mb9c6dde417" x="51.4" y="156.301329" style="stroke: #000000; stroke-width: 0.6"/>
      </g>
     </g>
    </g>
    <g id="ytick_33">
     <g id="line2d_66">
      <g>
       <use xlink:href="#mb9c6dde417" x="51.4" y="153.428932" style="stroke: #000000; stroke-width: 0.6"/>
      </g>
     </g>
    </g>
    <g id="ytick_34">
     <g id="line2d_67">
      <g>
       <use xlink:href="#mb9c6dde417" x="51.4" y="150.940748" style="stroke: #000000; stroke-width: 0.6"/>
      </g>
     </g>
    </g>
    <g id="ytick_35">
     <g id="line2d_68">
      <g>
       <use xlink:href="#mb9c6dde417" x="51.4" y="148.746015" style="stroke: #000000; stroke-width: 0.6"/>
      </g>
     </g>
    </g>
    <g id="ytick_36">
     <g id="line2d_69">
      <g>
       <use xlink:href="#mb9c6dde417" x="51.4" y="133.866864" style="stroke: #000000; stroke-width: 0.6"/>
      </g>
     </g>
    </g>
    <g id="ytick_37">
     <g id="line2d_70">
      <g>
       <use xlink:href="#mb9c6dde417" x="51.4" y="126.311549" style="stroke: #000000; stroke-width: 0.6"/>
      </g>
     </g>
    </g>
    <g id="ytick_38">
     <g id="line2d_71">
      <g>
       <use xlink:href="#mb9c6dde417" x="51.4" y="120.950969" style="stroke: #000000; stroke-width: 0.6"/>
      </g>
     </g>
    </g>
    <g id="ytick_39">
     <g id="line2d_72">
      <g>
       <use xlink:href="#mb9c6dde417" x="51.4" y="116.792979" style="stroke: #000000; stroke-width: 0.6"/>
      </g>
     </g>
    </g>
    <g id="ytick_40">
     <g id="line2d_73">
      <g>
       <use xlink:href="#mb9c6dde417" x="51.4" y="113.395654" style="stroke: #000000; stroke-width: 0.6"/>
      </g>
     </g>
    </g>
    <g id="ytick_41">
     <g id="line2d_74">
      <g>
       <use xlink:href="#mb9c6dde417" x="51.4" y="110.523257" style="stroke: #000000; stroke-width: 0.6"/>
      </g>
     </g>
    </g>
    <g id="ytick_42">
     <g id="line2d_75">
      <g>
       <use xlink:href="#mb9c6dde417" x="51.4" y="108.035073" style="stroke: #000000; stroke-width: 0.6"/>
      </g>
     </g>
    </g>
    <g id="ytick_43">
     <g id="line2d_76">
      <g>
       <use xlink:href="#mb9c6dde417" x="51.4" y="105.84034" style="stroke: #000000; stroke-width: 0.6"/>
      </g>
     </g>
    </g>
    <g id="ytick_44">
     <g id="line2d_77">
      <g>
       <use xlink:href="#mb9c6dde417" x="51.4" y="90.961189" style="stroke: #000000; stroke-width: 0.6"/>
      </g>
     </g>
    </g>
    <g id="ytick_45">
     <g id="line2d_78">
      <g>
       <use xlink:href="#mb9c6dde417" x="51.4" y="83.405874" style="stroke: #000000; stroke-width: 0.6"/>
      </g>
     </g>
    </g>
    <g id="ytick_46">
     <g id="line2d_79">
      <g>
       <use xlink:href="#mb9c6dde417" x="51.4" y="78.045294" style="stroke: #000000; stroke-width: 0.6"/>
      </g>
     </g>
    </g>
    <g id="ytick_47">
     <g id="line2d_80">
      <g>
       <use xlink:href="#mb9c6dde417" x="51.4" y="73.887304" style="stroke: #000000; stroke-width: 0.6"/>
      </g>
     </g>
    </g>
    <g id="ytick_48">
     <g id="line2d_81">
      <g>
       <use xlink:href="#mb9c6dde417" x="51.4" y="70.489979" style="stroke: #000000; stroke-width: 0.6"/>
      </g>
     </g>
    </g>
    <g id="ytick_49">
     <g id="line2d_82">
      <g>
       <use xlink:href="#mb9c6dde417" x="51.4" y="67.617582" style="stroke: #000000; stroke-width: 0.6"/>
      </g>
     </g>
    </g>
    <g id="ytick_50">
     <g id="line2d_83">
      <g>
       <use xlink:href="#mb9c6dde417" x="51.4" y="65.129398" style="stroke: #000000; stroke-width: 0.6"/>
      </g>
     </g>
    </g>
    <g id="ytick_51">
     <g id="line2d_84">
      <g>
       <use xlink:href="#mb9c6dde417" x="51.4" y="62.934665" style="stroke: #000000; stroke-width: 0.6"/>
      </g>
     </g>
    </g>
    <g id="ytick_52">
     <g id="line2d_85">
      <g>
       <use xlink:href="#mb9c6dde417" x="51.4" y="48.055514" style="stroke: #000000; stroke-width: 0.6"/>
      </g>
     </g>
    </g>
    <g id="ytick_53">
     <g id="line2d_86">
      <g>
       <use xlink:href="#mb9c6dde417" x="51.4" y="40.500199" style="stroke: #000000; stroke-width: 0.6"/>
      </g>
     </g>
    </g>
    <g id="text_27">
     <!-- occupation number fluctuation ($\Delta n$) -->
     <g transform="translate(14.8 253.706125) rotate(-90) scale(0.1 -0.1)">
      <defs>
       <path id="DejaVuSans-6f" d="M 1959 3097 
Q 1497 3097 1228 2736 
Q 959 2375 959 1747 
Q 959 1119 1226 758 
Q 1494 397 1959 397 
Q 2419 397 2687 759 
Q 2956 1122 2956 1747 
Q 2956 2369 2687 2733 
Q 2419 3097 1959 3097 
z
M 1959 3584 
Q 2709 3584 3137 3096 
Q 3566 2609 3566 1747 
Q 3566 888 3137 398 
Q 2709 -91 1959 -91 
Q 1206 -91 779 398 
Q 353 888 353 1747 
Q 353 2609 779 3096 
Q 1206 3584 1959 3584 
z
" transform="scale(0.015625)"/>
       <path id="DejaVuSans-63" d="M 3122 3366 
L 3122 2828 
Q 2878 2963 2633 3030 
Q 2388 3097 2138 3097 
Q 1578 3097 1268 2742 
Q 959 2388 959 1747 
Q 959 1106 1268 751 
Q 1578 397 2138 397 
Q 2388 397 2633 464 
Q 2878 531 3122 666 
L 3122 134 
Q 2881 22 2623 -34 
Q 2366 -91 2075 -91 
Q 1284 -91 818 406 
Q 353 903 353 1747 
Q 353 2603 823 3093 
Q 1294 3584 2113 3584 
Q 2378 3584 2631 3529 
Q 2884 3475 3122 3366 
z
" transform="scale(0.015625)"/>
       <path id="DejaVuSans-62" d="M 3116 1747 
Q 3116 2381 2855 2742 
Q 2594 3103 2138 3103 
Q 1681 3103 1420 2742 
Q 1159 2381 1159 1747 
Q 1159 1113 1420 752 
Q 1681 391 2138 391 
Q 2594 391 2855 752 
Q 3116 1113 3116 1747 
z
M 1159 2969 
Q 1341 3281 1617 3432 
Q 1894 3584 2278 3584 
Q 2916 3584 3314 3078 
Q 3713 2572 3713 1747 
Q 3713 922 3314 415 
Q 2916 -91 2278 -91 
Q 1894 -91 1617 61 
Q 1341 213 1159 525 
L 1159 0 
L 581 0 
L 581 4863 
L 1159 4863 
L 1159 2969 
z
" transform="scale(0.015625)"/>
       <path id="DejaVuSans-66" d="M 2375 4863 
L 2375 4384 
L 1825 4384 
Q 1516 4384 1395 4259 
Q 1275 4134 1275 3809 
L 1275 3500 
L 2222 3500 
L 2222 3053 
L 1275 3053 
L 1275 0 
L 697 0 
L 697 3053 
L 147 3053 
L 147 3500 
L 697 3500 
L 697 3744 
Q 697 4328 969 4595 
Q 1241 4863 1831 4863 
L 2375 4863 
z
" transform="scale(0.015625)"/>
       <path id="DejaVuSans-6c" d="M 603 4863 
L 1178 4863 
L 1178 0 
L 603 0 
L 603 4863 
z
" transform="scale(0.015625)"/>
       <path id="DejaVuSans-394" d="M 2188 4044 
L 906 525 
L 3472 525 
L 2188 4044 
z
M 50 0 
L 1831 4666 
L 2547 4666 
L 4325 0 
L 50 0 
z
" transform="scale(0.015625)"/>
       <path id="DejaVuSans-Oblique-6e" d="M 3566 2113 
L 3156 0 
L 2578 0 
L 2988 2091 
Q 3016 2238 3031 2350 
Q 3047 2463 3047 2528 
Q 3047 2791 2881 2937 
Q 2716 3084 2419 3084 
Q 1956 3084 1622 2776 
Q 1288 2469 1184 1941 
L 800 0 
L 225 0 
L 903 3500 
L 1478 3500 
L 1363 2950 
Q 1603 3253 1940 3418 
Q 2278 3584 2650 3584 
Q 3113 3584 3367 3334 
Q 3622 3084 3622 2631 
Q 3622 2519 3608 2391 
Q 3594 2263 3566 2113 
z
" transform="scale(0.015625)"/>
      </defs>
      <use xlink:href="#DejaVuSans-6f" transform="translate(0 0.015625)"/>
      <use xlink:href="#DejaVuSans-63" transform="translate(61.181641 0.015625)"/>
      <use xlink:href="#DejaVuSans-63" transform="translate(116.162109 0.015625)"/>
      <use xlink:href="#DejaVuSans-75" transform="translate(171.142578 0.015625)"/>
      <use xlink:href="#DejaVuSans-70" transform="translate(234.521484 0.015625)"/>
      <use xlink:href="#DejaVuSans-61" transform="translate(297.998047 0.015625)"/>
      <use xlink:href="#DejaVuSans-74" transform="translate(359.277344 0.015625)"/>
      <use xlink:href="#DejaVuSans-69" transform="translate(398.486328 0.015625)"/>
      <use xlink:href="#DejaVuSans-6f" transform="translate(426.269531 0.015625)"/>
      <use xlink:href="#DejaVuSans-6e" transform="translate(487.451172 0.015625)"/>
      <use xlink:href="#DejaVuSans-20" transform="translate(550.830078 0.015625)"/>
      <use xlink:href="#DejaVuSans-6e" transform="translate(582.617188 0.015625)"/>
      <use xlink:href="#DejaVuSans-75" transform="translate(645.996094 0.015625)"/>
      <use xlink:href="#DejaVuSans-6d" transform="translate(709.375 0.015625)"/>
      <use xlink:href="#DejaVuSans-62" transform="translate(806.787109 0.015625)"/>
      <use xlink:href="#DejaVuSans-65" transform="translate(870.263672 0.015625)"/>
      <use xlink:href="#DejaVuSans-72" transform="translate(931.787109 0.015625)"/>
      <use xlink:href="#DejaVuSans-20" transform="translate(972.900391 0.015625)"/>
      <use xlink:href="#DejaVuSans-66" transform="translate(1004.6875 0.015625)"/>
      <use xlink:href="#DejaVuSans-6c" transform="translate(1039.892578 0.015625)"/>
      <use xlink:href="#DejaVuSans-75" transform="translate(1067.675781 0.015625)"/>
      <use xlink:href="#DejaVuSans-63" transform="translate(1131.054688 0.015625)"/>
      <use xlink:href="#DejaVuSans-74" transform="translate(1186.035156 0.015625)"/>
      <use xlink:href="#DejaVuSans-75" transform="translate(1225.244141 0.015625)"/>
      <use xlink:href="#DejaVuSans-61" transform="translate(1288.623047 0.015625)"/>
      <use xlink:href="#DejaVuSans-74" transform="translate(1349.902344 0.015625)"/>
      <use xlink:href="#DejaVuSans-69" transform="translate(1389.111328 0.015625)"/>
      <use xlink:href="#DejaVuSans-6f" transform="translate(1416.894531 0.015625)"/>
      <use xlink:href="#DejaVuSans-6e" transform="translate(1478.076172 0.015625)"/>
      <use xlink:href="#DejaVuSans-20" transform="translate(1541.455078 0.015625)"/>
      <use xlink:href="#DejaVuSans-28" transform="translate(1573.242188 0.015625)"/>
      <use xlink:href="#DejaVuSans-394" transform="translate(1612.255859 0.015625)"/>
      <use xlink:href="#DejaVuSans-Oblique-6e" transform="translate(1680.664062 0.015625)"/>
      <use xlink:href="#DejaVuSans-29" transform="translate(1744.042969 0.015625)"/>
     </g>
    </g>
   </g>
   <g id="line2d_87">
    <path d="M 69.178316 48.57158 
L 114.304194 69.180624 
L 192.323245 104.533833 
L 418.94832 206.891223 
L 424.74463 209.508211 
L 424.74463 209.508211 
" clip-path="url(#pfa09a6ca21)" style="fill: none; stroke: #f08080; stroke-width: 1.5; stroke-linecap: square"/>
   </g>
   <g id="line2d_88">
    <path d="M 69.178316 72.588615 
L 405.862171 269.31175 
L 406.004412 269.472852 
L 406.217773 269.472852 
L 406.324453 269.692082 
L 406.360013 269.636789 
L 406.395574 269.636789 
L 406.431134 269.803662 
L 406.466694 269.581822 
L 406.502254 269.747705 
L 406.608935 269.692082 
L 406.715615 269.859958 
L 406.751175 269.747705 
L 406.786736 269.859958 
L 406.893416 269.973579 
L 406.964537 269.859958 
L 407.071217 270.088604 
L 407.106777 269.973579 
L 407.142338 270.146653 
L 407.177898 270.088604 
L 407.213458 270.205066 
L 407.249018 270.030914 
L 407.284578 270.146653 
L 407.320138 270.088604 
L 407.462379 270.323002 
L 407.497939 270.205066 
L 407.56906 270.323002 
L 407.60462 270.442451 
L 407.64018 270.382535 
L 407.67574 270.263847 
L 407.711301 270.442451 
L 407.746861 270.382535 
L 407.889101 270.56345 
L 407.960222 270.442451 
L 408.102463 270.686042 
L 408.138023 270.56345 
L 408.173583 270.810269 
L 408.244703 270.624545 
L 408.315824 270.747948 
L 408.458064 270.810269 
L 408.493625 270.810269 
L 408.671426 271.063804 
L 408.778106 270.936174 
L 408.920347 271.193207 
L 408.955907 271.128281 
L 409.027027 271.193207 
L 409.169268 271.324432 
L 409.204828 271.193207 
L 409.240389 271.390744 
L 409.275949 271.258588 
L 409.45375 271.390744 
L 409.56043 271.457532 
L 409.631551 271.390744 
L 409.738231 271.592561 
L 409.844912 271.592561 
L 410.022713 271.868636 
L 410.093833 271.660817 
L 410.164953 271.798847 
L 410.307194 271.938953 
L 410.342754 271.798847 
L 410.378315 272.009803 
L 410.413875 271.868636 
L 410.556116 272.153142 
L 410.627236 272.009803 
L 410.769477 272.225647 
L 410.805037 272.153142 
L 410.840597 272.225647 
L 410.911717 272.153142 
L 410.982838 272.372373 
L 411.018398 272.225647 
L 411.053958 272.446611 
L 411.089518 272.372373 
L 411.125079 272.298721 
L 411.267319 272.596886 
L 411.33844 272.446611 
L 411.48068 272.672942 
L 411.516241 272.749624 
L 411.551801 272.596886 
L 411.587361 272.446611 
L 411.622921 272.749624 
L 411.694042 272.749624 
L 411.729602 272.983532 
L 411.800722 272.749624 
L 411.978523 272.904909 
L 412.014083 272.826943 
L 412.085204 272.904909 
L 412.191884 273.062825 
L 412.227444 272.904909 
L 412.298565 272.983532 
L 412.405245 273.142799 
L 412.476366 273.223465 
L 412.511926 273.062825 
L 412.618606 273.386922 
L 412.654167 273.223465 
L 412.725287 273.304835 
L 412.831968 273.386922 
L 412.974208 273.553299 
L 413.045329 273.722701 
L 413.080889 273.386922 
L 413.22313 273.808571 
L 413.29425 273.637615 
L 413.36537 273.553299 
L 413.400931 273.89524 
L 413.472051 273.637615 
L 413.543171 273.808571 
L 413.578731 273.808571 
L 413.720972 273.982723 
L 413.792093 273.808571 
L 413.934333 274.071035 
L 414.005454 274.071035 
L 414.147694 274.341107 
L 414.183255 274.341107 
L 414.254375 274.160192 
L 414.289935 274.250211 
L 414.361056 274.160192 
L 414.396616 274.525605 
L 414.467736 274.341107 
L 414.503296 274.341107 
L 414.538857 274.525605 
L 414.609977 274.4329 
L 414.645537 274.250211 
L 414.681097 274.619243 
L 414.716657 274.4329 
L 414.787778 274.341107 
L 414.823338 274.713831 
L 414.894458 274.525605 
L 414.930019 274.4329 
L 414.965579 274.809389 
L 415.036699 274.525605 
L 415.10782 274.809389 
L 415.17894 274.713831 
L 415.2145 274.619243 
L 415.25006 274.809389 
L 415.392301 274.905938 
L 415.570102 275.003497 
L 415.605662 275.201736 
L 415.676783 275.003497 
L 415.783463 275.201736 
L 415.819023 275.102089 
L 415.961264 275.201736 
L 416.067945 275.507234 
L 416.139065 275.201736 
L 416.174625 275.404284 
L 416.387986 275.507234 
L 416.459107 275.404284 
L 416.494667 275.611333 
L 416.565787 275.404284 
L 416.601347 275.823089 
L 416.672468 275.71661 
L 416.885829 275.71661 
L 416.921389 275.507234 
L 416.956949 275.823089 
L 417.02807 275.71661 
L 417.09919 276.03977 
L 417.17031 275.823089 
L 417.205871 276.15003 
L 417.276991 275.9308 
L 417.312551 275.823089 
L 417.348111 276.03977 
L 417.597033 276.03977 
L 417.632593 276.374543 
L 417.703713 276.15003 
L 417.739273 276.15003 
L 417.774834 276.488862 
L 417.845954 276.15003 
L 417.881514 276.15003 
L 417.917074 276.488862 
L 417.988195 276.26161 
L 418.023755 276.26161 
L 418.059315 276.15003 
L 418.130435 276.6046 
L 418.165996 276.488862 
L 418.201556 276.488862 
L 418.308236 276.721795 
L 418.379357 276.488862 
L 418.414917 276.960702 
L 418.486037 276.6046 
L 418.628278 276.960702 
L 418.663838 276.840482 
L 418.770519 276.721795 
L 418.98388 277.082492 
L 419.055 277.205896 
L 419.126121 276.960702 
L 419.268361 277.205896 
L 419.339482 277.082492 
L 419.481723 277.457718 
L 419.517283 277.457718 
L 419.588403 277.205896 
L 419.623963 277.457718 
L 419.659524 277.457718 
L 419.695084 277.330956 
L 419.730644 277.586228 
L 419.766204 277.457718 
L 419.801764 277.457718 
L 419.872885 277.586228 
L 419.944005 277.330956 
L 420.015125 277.716536 
L 420.050686 277.586228 
L 420.086246 277.457718 
L 420.121806 277.586228 
L 420.157366 277.848692 
L 420.228487 277.586228 
L 420.264047 277.457718 
L 420.335167 277.848692 
L 420.370727 277.716536 
L 420.406287 277.586228 
L 420.441848 277.98275 
L 420.512968 277.716536 
L 420.548528 277.586228 
L 420.584088 278.118765 
L 420.655209 277.98275 
L 420.726329 277.848692 
L 420.761889 278.256794 
L 420.83301 277.98275 
L 420.86857 277.98275 
L 420.93969 278.3969 
L 421.010811 278.256794 
L 421.046371 278.118765 
L 421.081931 278.539145 
L 421.153051 278.256794 
L 421.188612 278.256794 
L 421.224172 278.118765 
L 421.330852 278.539145 
L 421.437533 278.118765 
L 421.544213 278.539145 
L 421.579774 278.3969 
L 421.615334 278.539145 
L 421.722014 278.83032 
L 421.828695 278.3969 
L 421.864255 278.683595 
L 421.935376 278.979393 
L 422.042056 278.539145 
L 422.113176 279.13089 
L 422.219857 278.979393 
L 422.255417 278.683595 
L 422.326538 278.979393 
L 422.362098 278.83032 
L 422.397658 279.13089 
L 422.433218 278.979393 
L 422.468778 278.979393 
L 422.504339 278.83032 
L 422.539899 279.13089 
L 422.575459 279.13089 
L 422.646579 278.979393 
L 422.682139 279.284891 
L 422.75326 278.979393 
L 422.966621 279.600746 
L 423.073302 279.13089 
L 423.108862 279.762783 
L 423.179982 279.284891 
L 423.215542 279.284891 
L 423.251102 279.927687 
L 423.322223 279.284891 
L 423.428903 279.927687 
L 423.500024 279.762783 
L 423.535584 279.600746 
L 423.606704 279.762783 
L 423.642265 279.762783 
L 423.713385 279.44148 
L 423.748945 280.095563 
L 423.820065 279.927687 
L 423.891186 279.600746 
L 423.997866 280.266519 
L 424.033427 280.095563 
L 424.104547 279.762783 
L 424.140107 280.266519 
L 424.211228 280.095563 
L 424.246788 279.927687 
L 424.282348 280.095563 
L 424.317908 280.44067 
L 424.389028 280.266519 
L 424.424589 280.266519 
L 424.495709 279.927687 
L 424.60239 280.44067 
L 424.74463 280.095563 
L 424.74463 280.095563 
" clip-path="url(#pfa09a6ca21)" style="fill: none; stroke-dasharray: 5.55,2.4; stroke-dashoffset: 0; stroke: #1e90ff; stroke-width: 1.5"/>
   </g>
   <g id="patch_5">
    <path d="M 51.4 292.034125 
L 51.4 36.978125 
" style="fill: none; stroke: #000000; stroke-width: 0.8; stroke-linejoin: miter; stroke-linecap: square"/>
   </g>
   <g id="patch_6">
    <path d="M 442.522946 292.034125 
L 442.522946 36.978125 
" style="fill: none; stroke: #000000; stroke-width: 0.8; stroke-linejoin: miter; stroke-linecap: square"/>
   </g>
   <g id="patch_7">
    <path d="M 51.4 292.034125 
L 442.522946 292.034125 
" style="fill: none; stroke: #000000; stroke-width: 0.8; stroke-linejoin: miter; stroke-linecap: square"/>
   </g>
   <g id="patch_8">
    <path d="M 51.4 36.978125 
L 442.522946 36.978125 
" style="fill: none; stroke: #000000; stroke-width: 0.8; stroke-linejoin: miter; stroke-linecap: square"/>
   </g>
   <g id="legend_1">
    <g id="patch_9">
     <path d="M 371.408884 74.334375 
L 435.522946 74.334375 
Q 437.522946 74.334375 437.522946 72.334375 
L 437.522946 43.978125 
Q 437.522946 41.978125 435.522946 41.978125 
L 371.408884 41.978125 
Q 369.408884 41.978125 369.408884 43.978125 
L 369.408884 72.334375 
Q 369.408884 74.334375 371.408884 74.334375 
z
" style="fill: #ffffff; opacity: 0.8; stroke: #cccccc; stroke-linejoin: miter"/>
    </g>
    <g id="line2d_89">
     <path d="M 373.408884 50.076563 
L 383.408884 50.076563 
L 393.408884 50.076563 
" style="fill: none; stroke: #f08080; stroke-width: 1.5; stroke-linecap: square"/>
    </g>
    <g id="text_28">
     <!-- cantor -->
     <g transform="translate(401.408884 53.576563) scale(0.1 -0.1)">
      <use xlink:href="#DejaVuSans-63"/>
      <use xlink:href="#DejaVuSans-61" x="54.980469"/>
      <use xlink:href="#DejaVuSans-6e" x="116.259766"/>
      <use xlink:href="#DejaVuSans-74" x="179.638672"/>
      <use xlink:href="#DejaVuSans-6f" x="218.847656"/>
      <use xlink:href="#DejaVuSans-72" x="280.029297"/>
     </g>
    </g>
    <g id="line2d_90">
     <path d="M 373.408884 64.754688 
L 383.408884 64.754688 
L 393.408884 64.754688 
" style="fill: none; stroke-dasharray: 5.55,2.4; stroke-dashoffset: 0; stroke: #1e90ff; stroke-width: 1.5"/>
    </g>
    <g id="text_29">
     <!-- FeAl -->
     <g transform="translate(401.408884 68.254688) scale(0.1 -0.1)">
      <defs>
       <path id="DejaVuSans-46" d="M 628 4666 
L 3309 4666 
L 3309 4134 
L 1259 4134 
L 1259 2759 
L 3109 2759 
L 3109 2228 
L 1259 2228 
L 1259 0 
L 628 0 
L 628 4666 
z
" transform="scale(0.015625)"/>
       <path id="DejaVuSans-41" d="M 2188 4044 
L 1331 1722 
L 3047 1722 
L 2188 4044 
z
M 1831 4666 
L 2547 4666 
L 4325 0 
L 3669 0 
L 3244 1197 
L 1141 1197 
L 716 0 
L 50 0 
L 1831 4666 
z
" transform="scale(0.015625)"/>
      </defs>
      <use xlink:href="#DejaVuSans-46"/>
      <use xlink:href="#DejaVuSans-65" x="52.019531"/>
      <use xlink:href="#DejaVuSans-41" x="113.542969"/>
      <use xlink:href="#DejaVuSans-6c" x="181.951172"/>
     </g>
    </g>
   </g>
  </g>
 </g>
 <defs>
  <clipPath id="pfa09a6ca21">
   <rect x="51.4" y="36.978125" width="391.122946" height="255.056"/>
  </clipPath>
 </defs>
</svg>
