<?xml version="1.0" encoding="utf-8" standalone="no"?>
<!DOCTYPE svg PUBLIC "-//W3C//DTD SVG 1.1//EN"
  "http://www.w3.org/Graphics/SVG/1.1/DTD/svg11.dtd">
<svg xmlns:xlink="http://www.w3.org/1999/xlink" width="421.328911pt" height="561.41225pt" viewBox="0 0 421.328911 561.41225" xmlns="http://www.w3.org/2000/svg" version="1.1">
 <metadata>
  <rdf:RDF xmlns:dc="http://purl.org/dc/elements/1.1/" xmlns:cc="http://creativecommons.org/ns#" xmlns:rdf="http://www.w3.org/1999/02/22-rdf-syntax-ns#">
   <cc:Work>
    <dc:type rdf:resource="http://purl.org/dc/dcmitype/StillImage"/>
    <dc:date>2024-01-23T13:01:00.113129</dc:date>
    <dc:format>image/svg+xml</dc:format>
    <dc:creator>
     <cc:Agent>
      <dc:title>Matplotlib v3.8.2, https://matplotlib.org/</dc:title>
     </cc:Agent>
    </dc:creator>
   </cc:Work>
  </rdf:RDF>
 </metadata>
 <defs>
  <style type="text/css">*{stroke-linejoin: round; stroke-linecap: butt}</style>
 </defs>
 <g id="figure_1">
  <g id="patch_1">
   <path d="M -0 561.41225 
L 421.328911 561.41225 
L 421.328911 0 
L -0 0 
z
" style="fill: #ffffff"/>
  </g>
  <g id="axes_1">
   <g id="patch_2">
    <path d="M 55.778125 186.971705 
L 414.128911 186.971705 
L 414.128911 36.978125 
L 55.778125 36.978125 
z
" style="fill: #ffffff"/>
   </g>
   <g id="axes_2">
    <g id="patch_3">
     <path d="M 55.778125 36.978125 
L 414.128911 36.978125 
L 414.128911 36.978125 
L 55.778125 36.978125 
z
" style="fill: #ffffff"/>
    </g>
    <g id="matplotlib.axis_1">
     <g id="xtick_1">
      <g id="line2d_1">
       <defs>
        <path id="m250bb2d2d1" d="M 0 0 
L 0 -3.5 
" style="stroke: #000000; stroke-width: 0.8"/>
       </defs>
       <g>
        <use xlink:href="#m250bb2d2d1" x="72.066797" y="36.978125" style="stroke: #000000; stroke-width: 0.8"/>
       </g>
      </g>
      <g id="text_1">
       <!-- 11.61 -->
       <g transform="translate(57.752735 27.898438) scale(0.1 -0.1)">
        <defs>
         <path id="DejaVuSans-31" d="M 794 531 
L 1825 531 
L 1825 4091 
L 703 3866 
L 703 4441 
L 1819 4666 
L 2450 4666 
L 2450 531 
L 3481 531 
L 3481 0 
L 794 0 
L 794 531 
z
" transform="scale(0.015625)"/>
         <path id="DejaVuSans-2e" d="M 684 794 
L 1344 794 
L 1344 0 
L 684 0 
L 684 794 
z
" transform="scale(0.015625)"/>
         <path id="DejaVuSans-36" d="M 2113 2584 
Q 1688 2584 1439 2293 
Q 1191 2003 1191 1497 
Q 1191 994 1439 701 
Q 1688 409 2113 409 
Q 2538 409 2786 701 
Q 3034 994 3034 1497 
Q 3034 2003 2786 2293 
Q 2538 2584 2113 2584 
z
M 3366 4563 
L 3366 3988 
Q 3128 4100 2886 4159 
Q 2644 4219 2406 4219 
Q 1781 4219 1451 3797 
Q 1122 3375 1075 2522 
Q 1259 2794 1537 2939 
Q 1816 3084 2150 3084 
Q 2853 3084 3261 2657 
Q 3669 2231 3669 1497 
Q 3669 778 3244 343 
Q 2819 -91 2113 -91 
Q 1303 -91 875 529 
Q 447 1150 447 2328 
Q 447 3434 972 4092 
Q 1497 4750 2381 4750 
Q 2619 4750 2861 4703 
Q 3103 4656 3366 4563 
z
" transform="scale(0.015625)"/>
        </defs>
        <use xlink:href="#DejaVuSans-31"/>
        <use xlink:href="#DejaVuSans-31" x="63.623047"/>
        <use xlink:href="#DejaVuSans-2e" x="127.246094"/>
        <use xlink:href="#DejaVuSans-36" x="159.033203"/>
        <use xlink:href="#DejaVuSans-31" x="222.65625"/>
       </g>
      </g>
     </g>
     <g id="xtick_2">
      <g id="line2d_2">
       <g>
        <use xlink:href="#m250bb2d2d1" x="112.788477" y="36.978125" style="stroke: #000000; stroke-width: 0.8"/>
       </g>
      </g>
      <g id="text_2">
       <!-- 9.29 -->
       <g transform="translate(101.655665 27.898438) scale(0.1 -0.1)">
        <defs>
         <path id="DejaVuSans-39" d="M 703 97 
L 703 672 
Q 941 559 1184 500 
Q 1428 441 1663 441 
Q 2288 441 2617 861 
Q 2947 1281 2994 2138 
Q 2813 1869 2534 1725 
Q 2256 1581 1919 1581 
Q 1219 1581 811 2004 
Q 403 2428 403 3163 
Q 403 3881 828 4315 
Q 1253 4750 1959 4750 
Q 2769 4750 3195 4129 
Q 3622 3509 3622 2328 
Q 3622 1225 3098 567 
Q 2575 -91 1691 -91 
Q 1453 -91 1209 -44 
Q 966 3 703 97 
z
M 1959 2075 
Q 2384 2075 2632 2365 
Q 2881 2656 2881 3163 
Q 2881 3666 2632 3958 
Q 2384 4250 1959 4250 
Q 1534 4250 1286 3958 
Q 1038 3666 1038 3163 
Q 1038 2656 1286 2365 
Q 1534 2075 1959 2075 
z
" transform="scale(0.015625)"/>
         <path id="DejaVuSans-32" d="M 1228 531 
L 3431 531 
L 3431 0 
L 469 0 
L 469 531 
Q 828 903 1448 1529 
Q 2069 2156 2228 2338 
Q 2531 2678 2651 2914 
Q 2772 3150 2772 3378 
Q 2772 3750 2511 3984 
Q 2250 4219 1831 4219 
Q 1534 4219 1204 4116 
Q 875 4013 500 3803 
L 500 4441 
Q 881 4594 1212 4672 
Q 1544 4750 1819 4750 
Q 2544 4750 2975 4387 
Q 3406 4025 3406 3419 
Q 3406 3131 3298 2873 
Q 3191 2616 2906 2266 
Q 2828 2175 2409 1742 
Q 1991 1309 1228 531 
z
" transform="scale(0.015625)"/>
        </defs>
        <use xlink:href="#DejaVuSans-39"/>
        <use xlink:href="#DejaVuSans-2e" x="63.623047"/>
        <use xlink:href="#DejaVuSans-32" x="95.410156"/>
        <use xlink:href="#DejaVuSans-39" x="159.033203"/>
       </g>
      </g>
     </g>
     <g id="xtick_3">
      <g id="line2d_3">
       <g>
        <use xlink:href="#m250bb2d2d1" x="153.510158" y="36.978125" style="stroke: #000000; stroke-width: 0.8"/>
       </g>
      </g>
      <g id="text_3">
       <!-- 7.74 -->
       <g transform="translate(142.377345 27.898438) scale(0.1 -0.1)">
        <defs>
         <path id="DejaVuSans-37" d="M 525 4666 
L 3525 4666 
L 3525 4397 
L 1831 0 
L 1172 0 
L 2766 4134 
L 525 4134 
L 525 4666 
z
" transform="scale(0.015625)"/>
         <path id="DejaVuSans-34" d="M 2419 4116 
L 825 1625 
L 2419 1625 
L 2419 4116 
z
M 2253 4666 
L 3047 4666 
L 3047 1625 
L 3713 1625 
L 3713 1100 
L 3047 1100 
L 3047 0 
L 2419 0 
L 2419 1100 
L 313 1100 
L 313 1709 
L 2253 4666 
z
" transform="scale(0.015625)"/>
        </defs>
        <use xlink:href="#DejaVuSans-37"/>
        <use xlink:href="#DejaVuSans-2e" x="63.623047"/>
        <use xlink:href="#DejaVuSans-37" x="95.410156"/>
        <use xlink:href="#DejaVuSans-34" x="159.033203"/>
       </g>
      </g>
     </g>
     <g id="xtick_4">
      <g id="line2d_4">
       <g>
        <use xlink:href="#m250bb2d2d1" x="194.231838" y="36.978125" style="stroke: #000000; stroke-width: 0.8"/>
       </g>
      </g>
      <g id="text_4">
       <!-- 6.63 -->
       <g transform="translate(183.099025 27.898438) scale(0.1 -0.1)">
        <defs>
         <path id="DejaVuSans-33" d="M 2597 2516 
Q 3050 2419 3304 2112 
Q 3559 1806 3559 1356 
Q 3559 666 3084 287 
Q 2609 -91 1734 -91 
Q 1441 -91 1130 -33 
Q 819 25 488 141 
L 488 750 
Q 750 597 1062 519 
Q 1375 441 1716 441 
Q 2309 441 2620 675 
Q 2931 909 2931 1356 
Q 2931 1769 2642 2001 
Q 2353 2234 1838 2234 
L 1294 2234 
L 1294 2753 
L 1863 2753 
Q 2328 2753 2575 2939 
Q 2822 3125 2822 3475 
Q 2822 3834 2567 4026 
Q 2313 4219 1838 4219 
Q 1578 4219 1281 4162 
Q 984 4106 628 3988 
L 628 4550 
Q 988 4650 1302 4700 
Q 1616 4750 1894 4750 
Q 2613 4750 3031 4423 
Q 3450 4097 3450 3541 
Q 3450 3153 3228 2886 
Q 3006 2619 2597 2516 
z
" transform="scale(0.015625)"/>
        </defs>
        <use xlink:href="#DejaVuSans-36"/>
        <use xlink:href="#DejaVuSans-2e" x="63.623047"/>
        <use xlink:href="#DejaVuSans-36" x="95.410156"/>
        <use xlink:href="#DejaVuSans-33" x="159.033203"/>
       </g>
      </g>
     </g>
     <g id="xtick_5">
      <g id="line2d_5">
       <g>
        <use xlink:href="#m250bb2d2d1" x="234.953518" y="36.978125" style="stroke: #000000; stroke-width: 0.8"/>
       </g>
      </g>
      <g id="text_5">
       <!-- 5.80 -->
       <g transform="translate(223.820706 27.898438) scale(0.1 -0.1)">
        <defs>
         <path id="DejaVuSans-35" d="M 691 4666 
L 3169 4666 
L 3169 4134 
L 1269 4134 
L 1269 2991 
Q 1406 3038 1543 3061 
Q 1681 3084 1819 3084 
Q 2600 3084 3056 2656 
Q 3513 2228 3513 1497 
Q 3513 744 3044 326 
Q 2575 -91 1722 -91 
Q 1428 -91 1123 -41 
Q 819 9 494 109 
L 494 744 
Q 775 591 1075 516 
Q 1375 441 1709 441 
Q 2250 441 2565 725 
Q 2881 1009 2881 1497 
Q 2881 1984 2565 2268 
Q 2250 2553 1709 2553 
Q 1456 2553 1204 2497 
Q 953 2441 691 2322 
L 691 4666 
z
" transform="scale(0.015625)"/>
         <path id="DejaVuSans-38" d="M 2034 2216 
Q 1584 2216 1326 1975 
Q 1069 1734 1069 1313 
Q 1069 891 1326 650 
Q 1584 409 2034 409 
Q 2484 409 2743 651 
Q 3003 894 3003 1313 
Q 3003 1734 2745 1975 
Q 2488 2216 2034 2216 
z
M 1403 2484 
Q 997 2584 770 2862 
Q 544 3141 544 3541 
Q 544 4100 942 4425 
Q 1341 4750 2034 4750 
Q 2731 4750 3128 4425 
Q 3525 4100 3525 3541 
Q 3525 3141 3298 2862 
Q 3072 2584 2669 2484 
Q 3125 2378 3379 2068 
Q 3634 1759 3634 1313 
Q 3634 634 3220 271 
Q 2806 -91 2034 -91 
Q 1263 -91 848 271 
Q 434 634 434 1313 
Q 434 1759 690 2068 
Q 947 2378 1403 2484 
z
M 1172 3481 
Q 1172 3119 1398 2916 
Q 1625 2713 2034 2713 
Q 2441 2713 2670 2916 
Q 2900 3119 2900 3481 
Q 2900 3844 2670 4047 
Q 2441 4250 2034 4250 
Q 1625 4250 1398 4047 
Q 1172 3844 1172 3481 
z
" transform="scale(0.015625)"/>
         <path id="DejaVuSans-30" d="M 2034 4250 
Q 1547 4250 1301 3770 
Q 1056 3291 1056 2328 
Q 1056 1369 1301 889 
Q 1547 409 2034 409 
Q 2525 409 2770 889 
Q 3016 1369 3016 2328 
Q 3016 3291 2770 3770 
Q 2525 4250 2034 4250 
z
M 2034 4750 
Q 2819 4750 3233 4129 
Q 3647 3509 3647 2328 
Q 3647 1150 3233 529 
Q 2819 -91 2034 -91 
Q 1250 -91 836 529 
Q 422 1150 422 2328 
Q 422 3509 836 4129 
Q 1250 4750 2034 4750 
z
" transform="scale(0.015625)"/>
        </defs>
        <use xlink:href="#DejaVuSans-35"/>
        <use xlink:href="#DejaVuSans-2e" x="63.623047"/>
        <use xlink:href="#DejaVuSans-38" x="95.410156"/>
        <use xlink:href="#DejaVuSans-30" x="159.033203"/>
       </g>
      </g>
     </g>
     <g id="xtick_6">
      <g id="line2d_6">
       <g>
        <use xlink:href="#m250bb2d2d1" x="275.675198" y="36.978125" style="stroke: #000000; stroke-width: 0.8"/>
       </g>
      </g>
      <g id="text_6">
       <!-- 5.16 -->
       <g transform="translate(264.542386 27.898438) scale(0.1 -0.1)">
        <use xlink:href="#DejaVuSans-35"/>
        <use xlink:href="#DejaVuSans-2e" x="63.623047"/>
        <use xlink:href="#DejaVuSans-31" x="95.410156"/>
        <use xlink:href="#DejaVuSans-36" x="159.033203"/>
       </g>
      </g>
     </g>
     <g id="xtick_7">
      <g id="line2d_7">
       <g>
        <use xlink:href="#m250bb2d2d1" x="316.396879" y="36.978125" style="stroke: #000000; stroke-width: 0.8"/>
       </g>
      </g>
      <g id="text_7">
       <!-- 4.64 -->
       <g transform="translate(305.264066 27.898438) scale(0.1 -0.1)">
        <use xlink:href="#DejaVuSans-34"/>
        <use xlink:href="#DejaVuSans-2e" x="63.623047"/>
        <use xlink:href="#DejaVuSans-36" x="95.410156"/>
        <use xlink:href="#DejaVuSans-34" x="159.033203"/>
       </g>
      </g>
     </g>
     <g id="xtick_8">
      <g id="line2d_8">
       <g>
        <use xlink:href="#m250bb2d2d1" x="357.118559" y="36.978125" style="stroke: #000000; stroke-width: 0.8"/>
       </g>
      </g>
      <g id="text_8">
       <!-- 4.22 -->
       <g transform="translate(345.985747 27.898438) scale(0.1 -0.1)">
        <use xlink:href="#DejaVuSans-34"/>
        <use xlink:href="#DejaVuSans-2e" x="63.623047"/>
        <use xlink:href="#DejaVuSans-32" x="95.410156"/>
        <use xlink:href="#DejaVuSans-32" x="159.033203"/>
       </g>
      </g>
     </g>
     <g id="xtick_9">
      <g id="line2d_9">
       <g>
        <use xlink:href="#m250bb2d2d1" x="397.840239" y="36.978125" style="stroke: #000000; stroke-width: 0.8"/>
       </g>
      </g>
      <g id="text_9">
       <!-- 3.87 -->
       <g transform="translate(386.707427 27.898438) scale(0.1 -0.1)">
        <use xlink:href="#DejaVuSans-33"/>
        <use xlink:href="#DejaVuSans-2e" x="63.623047"/>
        <use xlink:href="#DejaVuSans-38" x="95.410156"/>
        <use xlink:href="#DejaVuSans-37" x="159.033203"/>
       </g>
      </g>
     </g>
     <g id="text_10">
      <!-- temperature ($10^2$ K) -->
      <g transform="translate(184.253518 16.3) scale(0.1 -0.1)">
       <defs>
        <path id="DejaVuSans-74" d="M 1172 4494 
L 1172 3500 
L 2356 3500 
L 2356 3053 
L 1172 3053 
L 1172 1153 
Q 1172 725 1289 603 
Q 1406 481 1766 481 
L 2356 481 
L 2356 0 
L 1766 0 
Q 1100 0 847 248 
Q 594 497 594 1153 
L 594 3053 
L 172 3053 
L 172 3500 
L 594 3500 
L 594 4494 
L 1172 4494 
z
" transform="scale(0.015625)"/>
        <path id="DejaVuSans-65" d="M 3597 1894 
L 3597 1613 
L 953 1613 
Q 991 1019 1311 708 
Q 1631 397 2203 397 
Q 2534 397 2845 478 
Q 3156 559 3463 722 
L 3463 178 
Q 3153 47 2828 -22 
Q 2503 -91 2169 -91 
Q 1331 -91 842 396 
Q 353 884 353 1716 
Q 353 2575 817 3079 
Q 1281 3584 2069 3584 
Q 2775 3584 3186 3129 
Q 3597 2675 3597 1894 
z
M 3022 2063 
Q 3016 2534 2758 2815 
Q 2500 3097 2075 3097 
Q 1594 3097 1305 2825 
Q 1016 2553 972 2059 
L 3022 2063 
z
" transform="scale(0.015625)"/>
        <path id="DejaVuSans-6d" d="M 3328 2828 
Q 3544 3216 3844 3400 
Q 4144 3584 4550 3584 
Q 5097 3584 5394 3201 
Q 5691 2819 5691 2113 
L 5691 0 
L 5113 0 
L 5113 2094 
Q 5113 2597 4934 2840 
Q 4756 3084 4391 3084 
Q 3944 3084 3684 2787 
Q 3425 2491 3425 1978 
L 3425 0 
L 2847 0 
L 2847 2094 
Q 2847 2600 2669 2842 
Q 2491 3084 2119 3084 
Q 1678 3084 1418 2786 
Q 1159 2488 1159 1978 
L 1159 0 
L 581 0 
L 581 3500 
L 1159 3500 
L 1159 2956 
Q 1356 3278 1631 3431 
Q 1906 3584 2284 3584 
Q 2666 3584 2933 3390 
Q 3200 3197 3328 2828 
z
" transform="scale(0.015625)"/>
        <path id="DejaVuSans-70" d="M 1159 525 
L 1159 -1331 
L 581 -1331 
L 581 3500 
L 1159 3500 
L 1159 2969 
Q 1341 3281 1617 3432 
Q 1894 3584 2278 3584 
Q 2916 3584 3314 3078 
Q 3713 2572 3713 1747 
Q 3713 922 3314 415 
Q 2916 -91 2278 -91 
Q 1894 -91 1617 61 
Q 1341 213 1159 525 
z
M 3116 1747 
Q 3116 2381 2855 2742 
Q 2594 3103 2138 3103 
Q 1681 3103 1420 2742 
Q 1159 2381 1159 1747 
Q 1159 1113 1420 752 
Q 1681 391 2138 391 
Q 2594 391 2855 752 
Q 3116 1113 3116 1747 
z
" transform="scale(0.015625)"/>
        <path id="DejaVuSans-72" d="M 2631 2963 
Q 2534 3019 2420 3045 
Q 2306 3072 2169 3072 
Q 1681 3072 1420 2755 
Q 1159 2438 1159 1844 
L 1159 0 
L 581 0 
L 581 3500 
L 1159 3500 
L 1159 2956 
Q 1341 3275 1631 3429 
Q 1922 3584 2338 3584 
Q 2397 3584 2469 3576 
Q 2541 3569 2628 3553 
L 2631 2963 
z
" transform="scale(0.015625)"/>
        <path id="DejaVuSans-61" d="M 2194 1759 
Q 1497 1759 1228 1600 
Q 959 1441 959 1056 
Q 959 750 1161 570 
Q 1363 391 1709 391 
Q 2188 391 2477 730 
Q 2766 1069 2766 1631 
L 2766 1759 
L 2194 1759 
z
M 3341 1997 
L 3341 0 
L 2766 0 
L 2766 531 
Q 2569 213 2275 61 
Q 1981 -91 1556 -91 
Q 1019 -91 701 211 
Q 384 513 384 1019 
Q 384 1609 779 1909 
Q 1175 2209 1959 2209 
L 2766 2209 
L 2766 2266 
Q 2766 2663 2505 2880 
Q 2244 3097 1772 3097 
Q 1472 3097 1187 3025 
Q 903 2953 641 2809 
L 641 3341 
Q 956 3463 1253 3523 
Q 1550 3584 1831 3584 
Q 2591 3584 2966 3190 
Q 3341 2797 3341 1997 
z
" transform="scale(0.015625)"/>
        <path id="DejaVuSans-75" d="M 544 1381 
L 544 3500 
L 1119 3500 
L 1119 1403 
Q 1119 906 1312 657 
Q 1506 409 1894 409 
Q 2359 409 2629 706 
Q 2900 1003 2900 1516 
L 2900 3500 
L 3475 3500 
L 3475 0 
L 2900 0 
L 2900 538 
Q 2691 219 2414 64 
Q 2138 -91 1772 -91 
Q 1169 -91 856 284 
Q 544 659 544 1381 
z
M 1991 3584 
L 1991 3584 
z
" transform="scale(0.015625)"/>
        <path id="DejaVuSans-20" transform="scale(0.015625)"/>
        <path id="DejaVuSans-28" d="M 1984 4856 
Q 1566 4138 1362 3434 
Q 1159 2731 1159 2009 
Q 1159 1288 1364 580 
Q 1569 -128 1984 -844 
L 1484 -844 
Q 1016 -109 783 600 
Q 550 1309 550 2009 
Q 550 2706 781 3412 
Q 1013 4119 1484 4856 
L 1984 4856 
z
" transform="scale(0.015625)"/>
        <path id="DejaVuSans-4b" d="M 628 4666 
L 1259 4666 
L 1259 2694 
L 3353 4666 
L 4166 4666 
L 1850 2491 
L 4331 0 
L 3500 0 
L 1259 2247 
L 1259 0 
L 628 0 
L 628 4666 
z
" transform="scale(0.015625)"/>
        <path id="DejaVuSans-29" d="M 513 4856 
L 1013 4856 
Q 1481 4119 1714 3412 
Q 1947 2706 1947 2009 
Q 1947 1309 1714 600 
Q 1481 -109 1013 -844 
L 513 -844 
Q 928 -128 1133 580 
Q 1338 1288 1338 2009 
Q 1338 2731 1133 3434 
Q 928 4138 513 4856 
z
" transform="scale(0.015625)"/>
       </defs>
       <use xlink:href="#DejaVuSans-74" transform="translate(0 0.765625)"/>
       <use xlink:href="#DejaVuSans-65" transform="translate(39.208984 0.765625)"/>
       <use xlink:href="#DejaVuSans-6d" transform="translate(100.732422 0.765625)"/>
       <use xlink:href="#DejaVuSans-70" transform="translate(198.144531 0.765625)"/>
       <use xlink:href="#DejaVuSans-65" transform="translate(261.621094 0.765625)"/>
       <use xlink:href="#DejaVuSans-72" transform="translate(323.144531 0.765625)"/>
       <use xlink:href="#DejaVuSans-61" transform="translate(364.257812 0.765625)"/>
       <use xlink:href="#DejaVuSans-74" transform="translate(425.537109 0.765625)"/>
       <use xlink:href="#DejaVuSans-75" transform="translate(464.746094 0.765625)"/>
       <use xlink:href="#DejaVuSans-72" transform="translate(528.125 0.765625)"/>
       <use xlink:href="#DejaVuSans-65" transform="translate(569.238281 0.765625)"/>
       <use xlink:href="#DejaVuSans-20" transform="translate(630.761719 0.765625)"/>
       <use xlink:href="#DejaVuSans-28" transform="translate(662.548828 0.765625)"/>
       <use xlink:href="#DejaVuSans-31" transform="translate(701.5625 0.765625)"/>
       <use xlink:href="#DejaVuSans-30" transform="translate(765.185547 0.765625)"/>
       <use xlink:href="#DejaVuSans-32" transform="translate(829.765625 39.046875) scale(0.7)"/>
       <use xlink:href="#DejaVuSans-20" transform="translate(877.036133 0.765625)"/>
       <use xlink:href="#DejaVuSans-4b" transform="translate(908.823242 0.765625)"/>
       <use xlink:href="#DejaVuSans-29" transform="translate(974.399414 0.765625)"/>
      </g>
     </g>
    </g>
    <g id="matplotlib.axis_2"/>
    <g id="patch_4">
     <path d="M 414.128911 36.978125 
L 55.778125 36.978125 
" style="fill: none; stroke: #000000; stroke-width: 0.8; stroke-linejoin: miter; stroke-linecap: square"/>
    </g>
   </g>
   <g id="matplotlib.axis_3">
    <g id="xtick_10">
     <g id="line2d_10">
      <path d="M 72.066797 186.971705 
L 72.066797 36.978125 
" clip-path="url(#p5bb0b934e7)" style="fill: none; stroke: #b0b0b0; stroke-width: 0.8; stroke-linecap: square"/>
     </g>
     <g id="line2d_11">
      <defs>
       <path id="mb3cccb0334" d="M 0 0 
L 0 3.5 
" style="stroke: #000000; stroke-width: 0.8"/>
      </defs>
      <g>
       <use xlink:href="#mb3cccb0334" x="72.066797" y="186.971705" style="stroke: #000000; stroke-width: 0.8"/>
      </g>
     </g>
    </g>
    <g id="xtick_11">
     <g id="line2d_12">
      <path d="M 112.788477 186.971705 
L 112.788477 36.978125 
" clip-path="url(#p5bb0b934e7)" style="fill: none; stroke: #b0b0b0; stroke-width: 0.8; stroke-linecap: square"/>
     </g>
     <g id="line2d_13">
      <g>
       <use xlink:href="#mb3cccb0334" x="112.788477" y="186.971705" style="stroke: #000000; stroke-width: 0.8"/>
      </g>
     </g>
    </g>
    <g id="xtick_12">
     <g id="line2d_14">
      <path d="M 153.510158 186.971705 
L 153.510158 36.978125 
" clip-path="url(#p5bb0b934e7)" style="fill: none; stroke: #b0b0b0; stroke-width: 0.8; stroke-linecap: square"/>
     </g>
     <g id="line2d_15">
      <g>
       <use xlink:href="#mb3cccb0334" x="153.510158" y="186.971705" style="stroke: #000000; stroke-width: 0.8"/>
      </g>
     </g>
    </g>
    <g id="xtick_13">
     <g id="line2d_16">
      <path d="M 194.231838 186.971705 
L 194.231838 36.978125 
" clip-path="url(#p5bb0b934e7)" style="fill: none; stroke: #b0b0b0; stroke-width: 0.8; stroke-linecap: square"/>
     </g>
     <g id="line2d_17">
      <g>
       <use xlink:href="#mb3cccb0334" x="194.231838" y="186.971705" style="stroke: #000000; stroke-width: 0.8"/>
      </g>
     </g>
    </g>
    <g id="xtick_14">
     <g id="line2d_18">
      <path d="M 234.953518 186.971705 
L 234.953518 36.978125 
" clip-path="url(#p5bb0b934e7)" style="fill: none; stroke: #b0b0b0; stroke-width: 0.8; stroke-linecap: square"/>
     </g>
     <g id="line2d_19">
      <g>
       <use xlink:href="#mb3cccb0334" x="234.953518" y="186.971705" style="stroke: #000000; stroke-width: 0.8"/>
      </g>
     </g>
    </g>
    <g id="xtick_15">
     <g id="line2d_20">
      <path d="M 275.675198 186.971705 
L 275.675198 36.978125 
" clip-path="url(#p5bb0b934e7)" style="fill: none; stroke: #b0b0b0; stroke-width: 0.8; stroke-linecap: square"/>
     </g>
     <g id="line2d_21">
      <g>
       <use xlink:href="#mb3cccb0334" x="275.675198" y="186.971705" style="stroke: #000000; stroke-width: 0.8"/>
      </g>
     </g>
    </g>
    <g id="xtick_16">
     <g id="line2d_22">
      <path d="M 316.396879 186.971705 
L 316.396879 36.978125 
" clip-path="url(#p5bb0b934e7)" style="fill: none; stroke: #b0b0b0; stroke-width: 0.8; stroke-linecap: square"/>
     </g>
     <g id="line2d_23">
      <g>
       <use xlink:href="#mb3cccb0334" x="316.396879" y="186.971705" style="stroke: #000000; stroke-width: 0.8"/>
      </g>
     </g>
    </g>
    <g id="xtick_17">
     <g id="line2d_24">
      <path d="M 357.118559 186.971705 
L 357.118559 36.978125 
" clip-path="url(#p5bb0b934e7)" style="fill: none; stroke: #b0b0b0; stroke-width: 0.8; stroke-linecap: square"/>
     </g>
     <g id="line2d_25">
      <g>
       <use xlink:href="#mb3cccb0334" x="357.118559" y="186.971705" style="stroke: #000000; stroke-width: 0.8"/>
      </g>
     </g>
    </g>
    <g id="xtick_18">
     <g id="line2d_26">
      <path d="M 397.840239 186.971705 
L 397.840239 36.978125 
" clip-path="url(#p5bb0b934e7)" style="fill: none; stroke: #b0b0b0; stroke-width: 0.8; stroke-linecap: square"/>
     </g>
     <g id="line2d_27">
      <g>
       <use xlink:href="#mb3cccb0334" x="397.840239" y="186.971705" style="stroke: #000000; stroke-width: 0.8"/>
      </g>
     </g>
    </g>
   </g>
   <g id="matplotlib.axis_4">
    <g id="ytick_1">
     <g id="line2d_28">
      <path d="M 55.778125 173.018749 
L 414.128911 173.018749 
" clip-path="url(#p5bb0b934e7)" style="fill: none; stroke: #b0b0b0; stroke-width: 0.8; stroke-linecap: square"/>
     </g>
     <g id="line2d_29">
      <defs>
       <path id="m4d8972ce3d" d="M 0 0 
L -3.5 0 
" style="stroke: #000000; stroke-width: 0.8"/>
      </defs>
      <g>
       <use xlink:href="#m4d8972ce3d" x="55.778125" y="173.018749" style="stroke: #000000; stroke-width: 0.8"/>
      </g>
     </g>
     <g id="text_11">
      <!-- $\mathdefault{10^{-17}}$ -->
      <g transform="translate(20.878125 176.817968) scale(0.1 -0.1)">
       <defs>
        <path id="DejaVuSans-2212" d="M 678 2272 
L 4684 2272 
L 4684 1741 
L 678 1741 
L 678 2272 
z
" transform="scale(0.015625)"/>
       </defs>
       <use xlink:href="#DejaVuSans-31" transform="translate(0 0.684375)"/>
       <use xlink:href="#DejaVuSans-30" transform="translate(63.623047 0.684375)"/>
       <use xlink:href="#DejaVuSans-2212" transform="translate(128.203125 38.965625) scale(0.7)"/>
       <use xlink:href="#DejaVuSans-31" transform="translate(186.855469 38.965625) scale(0.7)"/>
       <use xlink:href="#DejaVuSans-37" transform="translate(231.391602 38.965625) scale(0.7)"/>
      </g>
     </g>
    </g>
    <g id="ytick_2">
     <g id="line2d_30">
      <path d="M 55.778125 152.029131 
L 414.128911 152.029131 
" clip-path="url(#p5bb0b934e7)" style="fill: none; stroke: #b0b0b0; stroke-width: 0.8; stroke-linecap: square"/>
     </g>
     <g id="line2d_31">
      <g>
       <use xlink:href="#m4d8972ce3d" x="55.778125" y="152.029131" style="stroke: #000000; stroke-width: 0.8"/>
      </g>
     </g>
     <g id="text_12">
      <!-- $\mathdefault{10^{-15}}$ -->
      <g transform="translate(20.878125 155.82835) scale(0.1 -0.1)">
       <use xlink:href="#DejaVuSans-31" transform="translate(0 0.684375)"/>
       <use xlink:href="#DejaVuSans-30" transform="translate(63.623047 0.684375)"/>
       <use xlink:href="#DejaVuSans-2212" transform="translate(128.203125 38.965625) scale(0.7)"/>
       <use xlink:href="#DejaVuSans-31" transform="translate(186.855469 38.965625) scale(0.7)"/>
       <use xlink:href="#DejaVuSans-35" transform="translate(231.391602 38.965625) scale(0.7)"/>
      </g>
     </g>
    </g>
    <g id="ytick_3">
     <g id="line2d_32">
      <path d="M 55.778125 131.039513 
L 414.128911 131.039513 
" clip-path="url(#p5bb0b934e7)" style="fill: none; stroke: #b0b0b0; stroke-width: 0.8; stroke-linecap: square"/>
     </g>
     <g id="line2d_33">
      <g>
       <use xlink:href="#m4d8972ce3d" x="55.778125" y="131.039513" style="stroke: #000000; stroke-width: 0.8"/>
      </g>
     </g>
     <g id="text_13">
      <!-- $\mathdefault{10^{-13}}$ -->
      <g transform="translate(20.878125 134.838732) scale(0.1 -0.1)">
       <use xlink:href="#DejaVuSans-31" transform="translate(0 0.765625)"/>
       <use xlink:href="#DejaVuSans-30" transform="translate(63.623047 0.765625)"/>
       <use xlink:href="#DejaVuSans-2212" transform="translate(128.203125 39.046875) scale(0.7)"/>
       <use xlink:href="#DejaVuSans-31" transform="translate(186.855469 39.046875) scale(0.7)"/>
       <use xlink:href="#DejaVuSans-33" transform="translate(231.391602 39.046875) scale(0.7)"/>
      </g>
     </g>
    </g>
    <g id="ytick_4">
     <g id="line2d_34">
      <path d="M 55.778125 110.049895 
L 414.128911 110.049895 
" clip-path="url(#p5bb0b934e7)" style="fill: none; stroke: #b0b0b0; stroke-width: 0.8; stroke-linecap: square"/>
     </g>
     <g id="line2d_35">
      <g>
       <use xlink:href="#m4d8972ce3d" x="55.778125" y="110.049895" style="stroke: #000000; stroke-width: 0.8"/>
      </g>
     </g>
     <g id="text_14">
      <!-- $\mathdefault{10^{-11}}$ -->
      <g transform="translate(20.878125 113.849114) scale(0.1 -0.1)">
       <use xlink:href="#DejaVuSans-31" transform="translate(0 0.684375)"/>
       <use xlink:href="#DejaVuSans-30" transform="translate(63.623047 0.684375)"/>
       <use xlink:href="#DejaVuSans-2212" transform="translate(128.203125 38.965625) scale(0.7)"/>
       <use xlink:href="#DejaVuSans-31" transform="translate(186.855469 38.965625) scale(0.7)"/>
       <use xlink:href="#DejaVuSans-31" transform="translate(231.391602 38.965625) scale(0.7)"/>
      </g>
     </g>
    </g>
    <g id="ytick_5">
     <g id="line2d_36">
      <path d="M 55.778125 89.060277 
L 414.128911 89.060277 
" clip-path="url(#p5bb0b934e7)" style="fill: none; stroke: #b0b0b0; stroke-width: 0.8; stroke-linecap: square"/>
     </g>
     <g id="line2d_37">
      <g>
       <use xlink:href="#m4d8972ce3d" x="55.778125" y="89.060277" style="stroke: #000000; stroke-width: 0.8"/>
      </g>
     </g>
     <g id="text_15">
      <!-- $\mathdefault{10^{-9}}$ -->
      <g transform="translate(25.278125 92.859496) scale(0.1 -0.1)">
       <use xlink:href="#DejaVuSans-31" transform="translate(0 0.765625)"/>
       <use xlink:href="#DejaVuSans-30" transform="translate(63.623047 0.765625)"/>
       <use xlink:href="#DejaVuSans-2212" transform="translate(128.203125 39.046875) scale(0.7)"/>
       <use xlink:href="#DejaVuSans-39" transform="translate(186.855469 39.046875) scale(0.7)"/>
      </g>
     </g>
    </g>
    <g id="ytick_6">
     <g id="line2d_38">
      <path d="M 55.778125 68.070659 
L 414.128911 68.070659 
" clip-path="url(#p5bb0b934e7)" style="fill: none; stroke: #b0b0b0; stroke-width: 0.8; stroke-linecap: square"/>
     </g>
     <g id="line2d_39">
      <g>
       <use xlink:href="#m4d8972ce3d" x="55.778125" y="68.070659" style="stroke: #000000; stroke-width: 0.8"/>
      </g>
     </g>
     <g id="text_16">
      <!-- $\mathdefault{10^{-7}}$ -->
      <g transform="translate(25.278125 71.869878) scale(0.1 -0.1)">
       <use xlink:href="#DejaVuSans-31" transform="translate(0 0.684375)"/>
       <use xlink:href="#DejaVuSans-30" transform="translate(63.623047 0.684375)"/>
       <use xlink:href="#DejaVuSans-2212" transform="translate(128.203125 38.965625) scale(0.7)"/>
       <use xlink:href="#DejaVuSans-37" transform="translate(186.855469 38.965625) scale(0.7)"/>
      </g>
     </g>
    </g>
    <g id="ytick_7">
     <g id="line2d_40">
      <path d="M 55.778125 47.081041 
L 414.128911 47.081041 
" clip-path="url(#p5bb0b934e7)" style="fill: none; stroke: #b0b0b0; stroke-width: 0.8; stroke-linecap: square"/>
     </g>
     <g id="line2d_41">
      <g>
       <use xlink:href="#m4d8972ce3d" x="55.778125" y="47.081041" style="stroke: #000000; stroke-width: 0.8"/>
      </g>
     </g>
     <g id="text_17">
      <!-- $\mathdefault{10^{-5}}$ -->
      <g transform="translate(25.278125 50.88026) scale(0.1 -0.1)">
       <use xlink:href="#DejaVuSans-31" transform="translate(0 0.684375)"/>
       <use xlink:href="#DejaVuSans-30" transform="translate(63.623047 0.684375)"/>
       <use xlink:href="#DejaVuSans-2212" transform="translate(128.203125 38.965625) scale(0.7)"/>
       <use xlink:href="#DejaVuSans-35" transform="translate(186.855469 38.965625) scale(0.7)"/>
      </g>
     </g>
    </g>
    <g id="text_18">
     <!-- concentration $x_V$ (at. %) -->
     <g transform="translate(14.798438 172.174915) rotate(-90) scale(0.1 -0.1)">
      <defs>
       <path id="DejaVuSans-63" d="M 3122 3366 
L 3122 2828 
Q 2878 2963 2633 3030 
Q 2388 3097 2138 3097 
Q 1578 3097 1268 2742 
Q 959 2388 959 1747 
Q 959 1106 1268 751 
Q 1578 397 2138 397 
Q 2388 397 2633 464 
Q 2878 531 3122 666 
L 3122 134 
Q 2881 22 2623 -34 
Q 2366 -91 2075 -91 
Q 1284 -91 818 406 
Q 353 903 353 1747 
Q 353 2603 823 3093 
Q 1294 3584 2113 3584 
Q 2378 3584 2631 3529 
Q 2884 3475 3122 3366 
z
" transform="scale(0.015625)"/>
       <path id="DejaVuSans-6f" d="M 1959 3097 
Q 1497 3097 1228 2736 
Q 959 2375 959 1747 
Q 959 1119 1226 758 
Q 1494 397 1959 397 
Q 2419 397 2687 759 
Q 2956 1122 2956 1747 
Q 2956 2369 2687 2733 
Q 2419 3097 1959 3097 
z
M 1959 3584 
Q 2709 3584 3137 3096 
Q 3566 2609 3566 1747 
Q 3566 888 3137 398 
Q 2709 -91 1959 -91 
Q 1206 -91 779 398 
Q 353 888 353 1747 
Q 353 2609 779 3096 
Q 1206 3584 1959 3584 
z
" transform="scale(0.015625)"/>
       <path id="DejaVuSans-6e" d="M 3513 2113 
L 3513 0 
L 2938 0 
L 2938 2094 
Q 2938 2591 2744 2837 
Q 2550 3084 2163 3084 
Q 1697 3084 1428 2787 
Q 1159 2491 1159 1978 
L 1159 0 
L 581 0 
L 581 3500 
L 1159 3500 
L 1159 2956 
Q 1366 3272 1645 3428 
Q 1925 3584 2291 3584 
Q 2894 3584 3203 3211 
Q 3513 2838 3513 2113 
z
" transform="scale(0.015625)"/>
       <path id="DejaVuSans-69" d="M 603 3500 
L 1178 3500 
L 1178 0 
L 603 0 
L 603 3500 
z
M 603 4863 
L 1178 4863 
L 1178 4134 
L 603 4134 
L 603 4863 
z
" transform="scale(0.015625)"/>
       <path id="DejaVuSans-Oblique-78" d="M 3841 3500 
L 2234 1784 
L 3219 0 
L 2559 0 
L 1819 1388 
L 531 0 
L -166 0 
L 1556 1844 
L 641 3500 
L 1300 3500 
L 1972 2234 
L 3144 3500 
L 3841 3500 
z
" transform="scale(0.015625)"/>
       <path id="DejaVuSans-Oblique-56" d="M 1319 0 
L 500 4666 
L 1119 4666 
L 1797 653 
L 4063 4666 
L 4750 4666 
L 2053 0 
L 1319 0 
z
" transform="scale(0.015625)"/>
       <path id="DejaVuSans-25" d="M 4653 2053 
Q 4381 2053 4226 1822 
Q 4072 1591 4072 1178 
Q 4072 772 4226 539 
Q 4381 306 4653 306 
Q 4919 306 5073 539 
Q 5228 772 5228 1178 
Q 5228 1588 5073 1820 
Q 4919 2053 4653 2053 
z
M 4653 2450 
Q 5147 2450 5437 2106 
Q 5728 1763 5728 1178 
Q 5728 594 5436 251 
Q 5144 -91 4653 -91 
Q 4153 -91 3862 251 
Q 3572 594 3572 1178 
Q 3572 1766 3864 2108 
Q 4156 2450 4653 2450 
z
M 1428 4353 
Q 1159 4353 1004 4120 
Q 850 3888 850 3481 
Q 850 3069 1003 2837 
Q 1156 2606 1428 2606 
Q 1700 2606 1854 2837 
Q 2009 3069 2009 3481 
Q 2009 3884 1853 4118 
Q 1697 4353 1428 4353 
z
M 4250 4750 
L 4750 4750 
L 1831 -91 
L 1331 -91 
L 4250 4750 
z
M 1428 4750 
Q 1922 4750 2215 4408 
Q 2509 4066 2509 3481 
Q 2509 2891 2217 2550 
Q 1925 2209 1428 2209 
Q 931 2209 642 2551 
Q 353 2894 353 3481 
Q 353 4063 643 4406 
Q 934 4750 1428 4750 
z
" transform="scale(0.015625)"/>
      </defs>
      <use xlink:href="#DejaVuSans-63" transform="translate(0 0.015625)"/>
      <use xlink:href="#DejaVuSans-6f" transform="translate(54.980469 0.015625)"/>
      <use xlink:href="#DejaVuSans-6e" transform="translate(116.162109 0.015625)"/>
      <use xlink:href="#DejaVuSans-63" transform="translate(179.541016 0.015625)"/>
      <use xlink:href="#DejaVuSans-65" transform="translate(234.521484 0.015625)"/>
      <use xlink:href="#DejaVuSans-6e" transform="translate(296.044922 0.015625)"/>
      <use xlink:href="#DejaVuSans-74" transform="translate(359.423828 0.015625)"/>
      <use xlink:href="#DejaVuSans-72" transform="translate(398.632812 0.015625)"/>
      <use xlink:href="#DejaVuSans-61" transform="translate(439.746094 0.015625)"/>
      <use xlink:href="#DejaVuSans-74" transform="translate(501.025391 0.015625)"/>
      <use xlink:href="#DejaVuSans-69" transform="translate(540.234375 0.015625)"/>
      <use xlink:href="#DejaVuSans-6f" transform="translate(568.017578 0.015625)"/>
      <use xlink:href="#DejaVuSans-6e" transform="translate(629.199219 0.015625)"/>
      <use xlink:href="#DejaVuSans-20" transform="translate(692.578125 0.015625)"/>
      <use xlink:href="#DejaVuSans-Oblique-78" transform="translate(724.365234 0.015625)"/>
      <use xlink:href="#DejaVuSans-Oblique-56" transform="translate(783.544922 -16.390625) scale(0.7)"/>
      <use xlink:href="#DejaVuSans-20" transform="translate(834.165039 0.015625)"/>
      <use xlink:href="#DejaVuSans-28" transform="translate(865.952148 0.015625)"/>
      <use xlink:href="#DejaVuSans-61" transform="translate(904.96582 0.015625)"/>
      <use xlink:href="#DejaVuSans-74" transform="translate(966.245117 0.015625)"/>
      <use xlink:href="#DejaVuSans-2e" transform="translate(1005.454102 0.015625)"/>
      <use xlink:href="#DejaVuSans-20" transform="translate(1037.241211 0.015625)"/>
      <use xlink:href="#DejaVuSans-25" transform="translate(1069.02832 0.015625)"/>
      <use xlink:href="#DejaVuSans-29" transform="translate(1164.047852 0.015625)"/>
     </g>
    </g>
   </g>
   <g id="line2d_42">
    <path d="M 72.066797 67.642753 
L 100.216437 78.281515 
L 128.366078 88.682222 
L 157.265072 99.121322 
L 187.760516 109.898158 
L 220.99273 121.402171 
L 258.427842 134.120185 
L 302.281333 148.776561 
L 355.909004 166.455795 
L 397.840239 180.153815 
L 397.840239 180.153815 
" clip-path="url(#p5bb0b934e7)" style="fill: none; stroke: #f08080; stroke-width: 1.5; stroke-linecap: square"/>
   </g>
   <g id="line2d_43">
    <path d="M 72.066797 43.796015 
L 92.690318 48.581928 
L 114.584483 53.431901 
L 138.335742 58.462013 
L 164.660869 63.805655 
L 194.569862 69.64449 
L 229.333364 76.198133 
L 270.612987 83.746922 
L 320.52647 92.640956 
L 381.810583 103.327039 
L 397.840239 106.091002 
L 397.840239 106.091002 
" clip-path="url(#p5bb0b934e7)" style="fill: none; stroke-dasharray: 5.55,2.4; stroke-dashoffset: 0; stroke: #1e90ff; stroke-width: 1.5"/>
   </g>
   <g id="patch_5">
    <path d="M 55.778125 186.971705 
L 55.778125 36.978125 
" style="fill: none; stroke: #000000; stroke-width: 0.8; stroke-linejoin: miter; stroke-linecap: square"/>
   </g>
   <g id="patch_6">
    <path d="M 414.128911 186.971705 
L 414.128911 36.978125 
" style="fill: none; stroke: #000000; stroke-width: 0.8; stroke-linejoin: miter; stroke-linecap: square"/>
   </g>
   <g id="patch_7">
    <path d="M 55.778125 186.971705 
L 414.128911 186.971705 
" style="fill: none; stroke: #000000; stroke-width: 0.8; stroke-linejoin: miter; stroke-linecap: square"/>
   </g>
   <g id="patch_8">
    <path d="M 55.778125 36.978125 
L 414.128911 36.978125 
" style="fill: none; stroke: #000000; stroke-width: 0.8; stroke-linejoin: miter; stroke-linecap: square"/>
   </g>
   <g id="legend_1">
    <g id="patch_9">
     <path d="M 343.014849 74.334375 
L 407.128911 74.334375 
Q 409.128911 74.334375 409.128911 72.334375 
L 409.128911 43.978125 
Q 409.128911 41.978125 407.128911 41.978125 
L 343.014849 41.978125 
Q 341.014849 41.978125 341.014849 43.978125 
L 341.014849 72.334375 
Q 341.014849 74.334375 343.014849 74.334375 
z
" style="fill: #ffffff; opacity: 0.8; stroke: #cccccc; stroke-linejoin: miter"/>
    </g>
    <g id="line2d_44">
     <path d="M 345.014849 50.076563 
L 355.014849 50.076563 
L 365.014849 50.076563 
" style="fill: none; stroke: #f08080; stroke-width: 1.5; stroke-linecap: square"/>
    </g>
    <g id="text_19">
     <!-- cantor -->
     <g transform="translate(373.014849 53.576563) scale(0.1 -0.1)">
      <use xlink:href="#DejaVuSans-63"/>
      <use xlink:href="#DejaVuSans-61" x="54.980469"/>
      <use xlink:href="#DejaVuSans-6e" x="116.259766"/>
      <use xlink:href="#DejaVuSans-74" x="179.638672"/>
      <use xlink:href="#DejaVuSans-6f" x="218.847656"/>
      <use xlink:href="#DejaVuSans-72" x="280.029297"/>
     </g>
    </g>
    <g id="line2d_45">
     <path d="M 345.014849 64.754688 
L 355.014849 64.754688 
L 365.014849 64.754688 
" style="fill: none; stroke-dasharray: 5.55,2.4; stroke-dashoffset: 0; stroke: #1e90ff; stroke-width: 1.5"/>
    </g>
    <g id="text_20">
     <!-- FeAl -->
     <g transform="translate(373.014849 68.254688) scale(0.1 -0.1)">
      <defs>
       <path id="DejaVuSans-46" d="M 628 4666 
L 3309 4666 
L 3309 4134 
L 1259 4134 
L 1259 2759 
L 3109 2759 
L 3109 2228 
L 1259 2228 
L 1259 0 
L 628 0 
L 628 4666 
z
" transform="scale(0.015625)"/>
       <path id="DejaVuSans-41" d="M 2188 4044 
L 1331 1722 
L 3047 1722 
L 2188 4044 
z
M 1831 4666 
L 2547 4666 
L 4325 0 
L 3669 0 
L 3244 1197 
L 1141 1197 
L 716 0 
L 50 0 
L 1831 4666 
z
" transform="scale(0.015625)"/>
       <path id="DejaVuSans-6c" d="M 603 4863 
L 1178 4863 
L 1178 0 
L 603 0 
L 603 4863 
z
" transform="scale(0.015625)"/>
      </defs>
      <use xlink:href="#DejaVuSans-46"/>
      <use xlink:href="#DejaVuSans-65" x="52.019531"/>
      <use xlink:href="#DejaVuSans-41" x="113.542969"/>
      <use xlink:href="#DejaVuSans-6c" x="181.951172"/>
     </g>
    </g>
   </g>
  </g>
  <g id="axes_3">
   <g id="patch_10">
    <path d="M 55.778125 354.702915 
L 414.128911 354.702915 
L 414.128911 204.709335 
L 55.778125 204.709335 
z
" style="fill: #ffffff"/>
   </g>
   <g id="matplotlib.axis_5">
    <g id="xtick_19">
     <g id="line2d_46">
      <path d="M 72.066797 354.702915 
L 72.066797 204.709335 
" clip-path="url(#p86d3fb60f7)" style="fill: none; stroke: #b0b0b0; stroke-width: 0.8; stroke-linecap: square"/>
     </g>
     <g id="line2d_47">
      <g>
       <use xlink:href="#mb3cccb0334" x="72.066797" y="354.702915" style="stroke: #000000; stroke-width: 0.8"/>
      </g>
     </g>
    </g>
    <g id="xtick_20">
     <g id="line2d_48">
      <path d="M 112.788477 354.702915 
L 112.788477 204.709335 
" clip-path="url(#p86d3fb60f7)" style="fill: none; stroke: #b0b0b0; stroke-width: 0.8; stroke-linecap: square"/>
     </g>
     <g id="line2d_49">
      <g>
       <use xlink:href="#mb3cccb0334" x="112.788477" y="354.702915" style="stroke: #000000; stroke-width: 0.8"/>
      </g>
     </g>
    </g>
    <g id="xtick_21">
     <g id="line2d_50">
      <path d="M 153.510158 354.702915 
L 153.510158 204.709335 
" clip-path="url(#p86d3fb60f7)" style="fill: none; stroke: #b0b0b0; stroke-width: 0.8; stroke-linecap: square"/>
     </g>
     <g id="line2d_51">
      <g>
       <use xlink:href="#mb3cccb0334" x="153.510158" y="354.702915" style="stroke: #000000; stroke-width: 0.8"/>
      </g>
     </g>
    </g>
    <g id="xtick_22">
     <g id="line2d_52">
      <path d="M 194.231838 354.702915 
L 194.231838 204.709335 
" clip-path="url(#p86d3fb60f7)" style="fill: none; stroke: #b0b0b0; stroke-width: 0.8; stroke-linecap: square"/>
     </g>
     <g id="line2d_53">
      <g>
       <use xlink:href="#mb3cccb0334" x="194.231838" y="354.702915" style="stroke: #000000; stroke-width: 0.8"/>
      </g>
     </g>
    </g>
    <g id="xtick_23">
     <g id="line2d_54">
      <path d="M 234.953518 354.702915 
L 234.953518 204.709335 
" clip-path="url(#p86d3fb60f7)" style="fill: none; stroke: #b0b0b0; stroke-width: 0.8; stroke-linecap: square"/>
     </g>
     <g id="line2d_55">
      <g>
       <use xlink:href="#mb3cccb0334" x="234.953518" y="354.702915" style="stroke: #000000; stroke-width: 0.8"/>
      </g>
     </g>
    </g>
    <g id="xtick_24">
     <g id="line2d_56">
      <path d="M 275.675198 354.702915 
L 275.675198 204.709335 
" clip-path="url(#p86d3fb60f7)" style="fill: none; stroke: #b0b0b0; stroke-width: 0.8; stroke-linecap: square"/>
     </g>
     <g id="line2d_57">
      <g>
       <use xlink:href="#mb3cccb0334" x="275.675198" y="354.702915" style="stroke: #000000; stroke-width: 0.8"/>
      </g>
     </g>
    </g>
    <g id="xtick_25">
     <g id="line2d_58">
      <path d="M 316.396879 354.702915 
L 316.396879 204.709335 
" clip-path="url(#p86d3fb60f7)" style="fill: none; stroke: #b0b0b0; stroke-width: 0.8; stroke-linecap: square"/>
     </g>
     <g id="line2d_59">
      <g>
       <use xlink:href="#mb3cccb0334" x="316.396879" y="354.702915" style="stroke: #000000; stroke-width: 0.8"/>
      </g>
     </g>
    </g>
    <g id="xtick_26">
     <g id="line2d_60">
      <path d="M 357.118559 354.702915 
L 357.118559 204.709335 
" clip-path="url(#p86d3fb60f7)" style="fill: none; stroke: #b0b0b0; stroke-width: 0.8; stroke-linecap: square"/>
     </g>
     <g id="line2d_61">
      <g>
       <use xlink:href="#mb3cccb0334" x="357.118559" y="354.702915" style="stroke: #000000; stroke-width: 0.8"/>
      </g>
     </g>
    </g>
    <g id="xtick_27">
     <g id="line2d_62">
      <path d="M 397.840239 354.702915 
L 397.840239 204.709335 
" clip-path="url(#p86d3fb60f7)" style="fill: none; stroke: #b0b0b0; stroke-width: 0.8; stroke-linecap: square"/>
     </g>
     <g id="line2d_63">
      <g>
       <use xlink:href="#mb3cccb0334" x="397.840239" y="354.702915" style="stroke: #000000; stroke-width: 0.8"/>
      </g>
     </g>
    </g>
   </g>
   <g id="matplotlib.axis_6">
    <g id="ytick_8">
     <g id="line2d_64">
      <path d="M 55.778125 350.612759 
L 414.128911 350.612759 
" clip-path="url(#p86d3fb60f7)" style="fill: none; stroke: #b0b0b0; stroke-width: 0.8; stroke-linecap: square"/>
     </g>
     <g id="line2d_65">
      <g>
       <use xlink:href="#m4d8972ce3d" x="55.778125" y="350.612759" style="stroke: #000000; stroke-width: 0.8"/>
      </g>
     </g>
     <g id="text_21">
      <!-- 0.6 -->
      <g transform="translate(32.875 354.411978) scale(0.1 -0.1)">
       <use xlink:href="#DejaVuSans-30"/>
       <use xlink:href="#DejaVuSans-2e" x="63.623047"/>
       <use xlink:href="#DejaVuSans-36" x="95.410156"/>
      </g>
     </g>
    </g>
    <g id="ytick_9">
     <g id="line2d_66">
      <path d="M 55.778125 314.287064 
L 414.128911 314.287064 
" clip-path="url(#p86d3fb60f7)" style="fill: none; stroke: #b0b0b0; stroke-width: 0.8; stroke-linecap: square"/>
     </g>
     <g id="line2d_67">
      <g>
       <use xlink:href="#m4d8972ce3d" x="55.778125" y="314.287064" style="stroke: #000000; stroke-width: 0.8"/>
      </g>
     </g>
     <g id="text_22">
      <!-- 0.8 -->
      <g transform="translate(32.875 318.086282) scale(0.1 -0.1)">
       <use xlink:href="#DejaVuSans-30"/>
       <use xlink:href="#DejaVuSans-2e" x="63.623047"/>
       <use xlink:href="#DejaVuSans-38" x="95.410156"/>
      </g>
     </g>
    </g>
    <g id="ytick_10">
     <g id="line2d_68">
      <path d="M 55.778125 277.961368 
L 414.128911 277.961368 
" clip-path="url(#p86d3fb60f7)" style="fill: none; stroke: #b0b0b0; stroke-width: 0.8; stroke-linecap: square"/>
     </g>
     <g id="line2d_69">
      <g>
       <use xlink:href="#m4d8972ce3d" x="55.778125" y="277.961368" style="stroke: #000000; stroke-width: 0.8"/>
      </g>
     </g>
     <g id="text_23">
      <!-- 1.0 -->
      <g transform="translate(32.875 281.760587) scale(0.1 -0.1)">
       <use xlink:href="#DejaVuSans-31"/>
       <use xlink:href="#DejaVuSans-2e" x="63.623047"/>
       <use xlink:href="#DejaVuSans-30" x="95.410156"/>
      </g>
     </g>
    </g>
    <g id="ytick_11">
     <g id="line2d_70">
      <path d="M 55.778125 241.635673 
L 414.128911 241.635673 
" clip-path="url(#p86d3fb60f7)" style="fill: none; stroke: #b0b0b0; stroke-width: 0.8; stroke-linecap: square"/>
     </g>
     <g id="line2d_71">
      <g>
       <use xlink:href="#m4d8972ce3d" x="55.778125" y="241.635673" style="stroke: #000000; stroke-width: 0.8"/>
      </g>
     </g>
     <g id="text_24">
      <!-- 1.2 -->
      <g transform="translate(32.875 245.434892) scale(0.1 -0.1)">
       <use xlink:href="#DejaVuSans-31"/>
       <use xlink:href="#DejaVuSans-2e" x="63.623047"/>
       <use xlink:href="#DejaVuSans-32" x="95.410156"/>
      </g>
     </g>
    </g>
    <g id="ytick_12">
     <g id="line2d_72">
      <path d="M 55.778125 205.309978 
L 414.128911 205.309978 
" clip-path="url(#p86d3fb60f7)" style="fill: none; stroke: #b0b0b0; stroke-width: 0.8; stroke-linecap: square"/>
     </g>
     <g id="line2d_73">
      <g>
       <use xlink:href="#m4d8972ce3d" x="55.778125" y="205.309978" style="stroke: #000000; stroke-width: 0.8"/>
      </g>
     </g>
     <g id="text_25">
      <!-- 1.4 -->
      <g transform="translate(32.875 209.109197) scale(0.1 -0.1)">
       <use xlink:href="#DejaVuSans-31"/>
       <use xlink:href="#DejaVuSans-2e" x="63.623047"/>
       <use xlink:href="#DejaVuSans-34" x="95.410156"/>
      </g>
     </g>
    </g>
    <g id="text_26">
     <!-- formation energy $E_{form}$ (eV) -->
     <g transform="translate(26.775 348.306125) rotate(-90) scale(0.1 -0.1)">
      <defs>
       <path id="DejaVuSans-66" d="M 2375 4863 
L 2375 4384 
L 1825 4384 
Q 1516 4384 1395 4259 
Q 1275 4134 1275 3809 
L 1275 3500 
L 2222 3500 
L 2222 3053 
L 1275 3053 
L 1275 0 
L 697 0 
L 697 3053 
L 147 3053 
L 147 3500 
L 697 3500 
L 697 3744 
Q 697 4328 969 4595 
Q 1241 4863 1831 4863 
L 2375 4863 
z
" transform="scale(0.015625)"/>
       <path id="DejaVuSans-67" d="M 2906 1791 
Q 2906 2416 2648 2759 
Q 2391 3103 1925 3103 
Q 1463 3103 1205 2759 
Q 947 2416 947 1791 
Q 947 1169 1205 825 
Q 1463 481 1925 481 
Q 2391 481 2648 825 
Q 2906 1169 2906 1791 
z
M 3481 434 
Q 3481 -459 3084 -895 
Q 2688 -1331 1869 -1331 
Q 1566 -1331 1297 -1286 
Q 1028 -1241 775 -1147 
L 775 -588 
Q 1028 -725 1275 -790 
Q 1522 -856 1778 -856 
Q 2344 -856 2625 -561 
Q 2906 -266 2906 331 
L 2906 616 
Q 2728 306 2450 153 
Q 2172 0 1784 0 
Q 1141 0 747 490 
Q 353 981 353 1791 
Q 353 2603 747 3093 
Q 1141 3584 1784 3584 
Q 2172 3584 2450 3431 
Q 2728 3278 2906 2969 
L 2906 3500 
L 3481 3500 
L 3481 434 
z
" transform="scale(0.015625)"/>
       <path id="DejaVuSans-79" d="M 2059 -325 
Q 1816 -950 1584 -1140 
Q 1353 -1331 966 -1331 
L 506 -1331 
L 506 -850 
L 844 -850 
Q 1081 -850 1212 -737 
Q 1344 -625 1503 -206 
L 1606 56 
L 191 3500 
L 800 3500 
L 1894 763 
L 2988 3500 
L 3597 3500 
L 2059 -325 
z
" transform="scale(0.015625)"/>
       <path id="DejaVuSans-Oblique-45" d="M 1081 4666 
L 4031 4666 
L 3928 4134 
L 1606 4134 
L 1338 2753 
L 3566 2753 
L 3463 2222 
L 1234 2222 
L 909 531 
L 3284 531 
L 3181 0 
L 172 0 
L 1081 4666 
z
" transform="scale(0.015625)"/>
       <path id="DejaVuSans-Oblique-66" d="M 3059 4863 
L 2969 4384 
L 2419 4384 
Q 2106 4384 1964 4261 
Q 1822 4138 1753 3809 
L 1691 3500 
L 2638 3500 
L 2553 3053 
L 1606 3053 
L 1013 0 
L 434 0 
L 1031 3053 
L 481 3053 
L 563 3500 
L 1113 3500 
L 1159 3744 
Q 1278 4363 1576 4613 
Q 1875 4863 2516 4863 
L 3059 4863 
z
" transform="scale(0.015625)"/>
       <path id="DejaVuSans-Oblique-6f" d="M 1625 -91 
Q 1009 -91 651 289 
Q 294 669 294 1325 
Q 294 1706 417 2101 
Q 541 2497 738 2766 
Q 1047 3184 1428 3384 
Q 1809 3584 2291 3584 
Q 2888 3584 3255 3212 
Q 3622 2841 3622 2241 
Q 3622 1825 3500 1412 
Q 3378 1000 3181 728 
Q 2875 309 2494 109 
Q 2113 -91 1625 -91 
z
M 891 1344 
Q 891 869 1089 633 
Q 1288 397 1691 397 
Q 2269 397 2648 901 
Q 3028 1406 3028 2181 
Q 3028 2634 2825 2865 
Q 2622 3097 2228 3097 
Q 1903 3097 1650 2945 
Q 1397 2794 1197 2484 
Q 1050 2253 970 1956 
Q 891 1659 891 1344 
z
" transform="scale(0.015625)"/>
       <path id="DejaVuSans-Oblique-72" d="M 2853 2969 
Q 2766 3016 2653 3041 
Q 2541 3066 2413 3066 
Q 1953 3066 1609 2717 
Q 1266 2369 1153 1784 
L 800 0 
L 225 0 
L 909 3500 
L 1484 3500 
L 1375 2956 
Q 1603 3259 1920 3421 
Q 2238 3584 2597 3584 
Q 2691 3584 2781 3573 
Q 2872 3563 2963 3538 
L 2853 2969 
z
" transform="scale(0.015625)"/>
       <path id="DejaVuSans-Oblique-6d" d="M 5747 2113 
L 5338 0 
L 4763 0 
L 5166 2094 
Q 5191 2228 5203 2325 
Q 5216 2422 5216 2491 
Q 5216 2772 5059 2928 
Q 4903 3084 4622 3084 
Q 4203 3084 3875 2770 
Q 3547 2456 3450 1953 
L 3066 0 
L 2491 0 
L 2900 2094 
Q 2925 2209 2937 2307 
Q 2950 2406 2950 2484 
Q 2950 2769 2794 2926 
Q 2638 3084 2363 3084 
Q 1938 3084 1609 2770 
Q 1281 2456 1184 1953 
L 800 0 
L 225 0 
L 909 3500 
L 1484 3500 
L 1375 2956 
Q 1609 3263 1923 3423 
Q 2238 3584 2597 3584 
Q 2978 3584 3223 3384 
Q 3469 3184 3519 2828 
Q 3781 3197 4126 3390 
Q 4472 3584 4856 3584 
Q 5306 3584 5551 3325 
Q 5797 3066 5797 2591 
Q 5797 2488 5784 2364 
Q 5772 2241 5747 2113 
z
" transform="scale(0.015625)"/>
       <path id="DejaVuSans-56" d="M 1831 0 
L 50 4666 
L 709 4666 
L 2188 738 
L 3669 4666 
L 4325 4666 
L 2547 0 
L 1831 0 
z
" transform="scale(0.015625)"/>
      </defs>
      <use xlink:href="#DejaVuSans-66" transform="translate(0 0.015625)"/>
      <use xlink:href="#DejaVuSans-6f" transform="translate(35.205078 0.015625)"/>
      <use xlink:href="#DejaVuSans-72" transform="translate(96.386719 0.015625)"/>
      <use xlink:href="#DejaVuSans-6d" transform="translate(137.5 0.015625)"/>
      <use xlink:href="#DejaVuSans-61" transform="translate(234.912109 0.015625)"/>
      <use xlink:href="#DejaVuSans-74" transform="translate(296.191406 0.015625)"/>
      <use xlink:href="#DejaVuSans-69" transform="translate(335.400391 0.015625)"/>
      <use xlink:href="#DejaVuSans-6f" transform="translate(363.183594 0.015625)"/>
      <use xlink:href="#DejaVuSans-6e" transform="translate(424.365234 0.015625)"/>
      <use xlink:href="#DejaVuSans-20" transform="translate(487.744141 0.015625)"/>
      <use xlink:href="#DejaVuSans-65" transform="translate(519.53125 0.015625)"/>
      <use xlink:href="#DejaVuSans-6e" transform="translate(581.054688 0.015625)"/>
      <use xlink:href="#DejaVuSans-65" transform="translate(644.433594 0.015625)"/>
      <use xlink:href="#DejaVuSans-72" transform="translate(705.957031 0.015625)"/>
      <use xlink:href="#DejaVuSans-67" transform="translate(747.070312 0.015625)"/>
      <use xlink:href="#DejaVuSans-79" transform="translate(810.546875 0.015625)"/>
      <use xlink:href="#DejaVuSans-20" transform="translate(869.726562 0.015625)"/>
      <use xlink:href="#DejaVuSans-Oblique-45" transform="translate(901.513672 0.015625)"/>
      <use xlink:href="#DejaVuSans-Oblique-66" transform="translate(964.697266 -16.390625) scale(0.7)"/>
      <use xlink:href="#DejaVuSans-Oblique-6f" transform="translate(989.34082 -16.390625) scale(0.7)"/>
      <use xlink:href="#DejaVuSans-Oblique-72" transform="translate(1032.167969 -16.390625) scale(0.7)"/>
      <use xlink:href="#DejaVuSans-Oblique-6d" transform="translate(1060.947266 -16.390625) scale(0.7)"/>
      <use xlink:href="#DejaVuSans-20" transform="translate(1131.870117 0.015625)"/>
      <use xlink:href="#DejaVuSans-28" transform="translate(1163.657227 0.015625)"/>
      <use xlink:href="#DejaVuSans-65" transform="translate(1202.670898 0.015625)"/>
      <use xlink:href="#DejaVuSans-56" transform="translate(1264.194336 0.015625)"/>
      <use xlink:href="#DejaVuSans-29" transform="translate(1332.602539 0.015625)"/>
     </g>
    </g>
   </g>
   <g id="line2d_74">
    <path d="M 72.066797 211.527225 
L 145.340572 225.593968 
L 163.944096 228.828693 
L 180.95117 231.561928 
L 197.20889 233.950661 
L 213.238547 236.081337 
L 229.365945 238.000054 
L 245.85173 239.736517 
L 262.989126 241.316273 
L 281.03878 242.75441 
L 300.293916 244.06293 
L 321.178082 245.255827 
L 344.147407 246.341001 
L 369.853502 247.328109 
L 397.840239 248.189683 
L 397.840239 248.189683 
" clip-path="url(#p86d3fb60f7)" style="fill: none; stroke: #f08080; stroke-width: 1.5; stroke-linecap: square"/>
   </g>
   <g id="line2d_75">
    <path d="M 72.066797 305.363265 
L 83.828395 309.486774 
L 94.93838 313.147643 
L 105.657398 316.447073 
L 116.213513 319.464257 
L 126.704467 322.232193 
L 137.293163 324.795742 
L 148.077342 327.176699 
L 159.122166 329.386848 
L 170.590538 331.453593 
L 182.5802 333.386284 
L 195.221474 335.196321 
L 208.644682 336.891359 
L 223.045308 338.483133 
L 238.651417 339.981084 
L 255.691072 341.389549 
L 274.457498 342.71394 
L 295.341665 343.960782 
L 318.767118 345.132167 
L 345.255147 346.229239 
L 375.359624 347.248687 
L 397.840239 347.885025 
L 397.840239 347.885025 
" clip-path="url(#p86d3fb60f7)" style="fill: none; stroke-dasharray: 5.55,2.4; stroke-dashoffset: 0; stroke: #1e90ff; stroke-width: 1.5"/>
   </g>
   <g id="patch_11">
    <path d="M 55.778125 354.702915 
L 55.778125 204.709335 
" style="fill: none; stroke: #000000; stroke-width: 0.8; stroke-linejoin: miter; stroke-linecap: square"/>
   </g>
   <g id="patch_12">
    <path d="M 414.128911 354.702915 
L 414.128911 204.709335 
" style="fill: none; stroke: #000000; stroke-width: 0.8; stroke-linejoin: miter; stroke-linecap: square"/>
   </g>
   <g id="patch_13">
    <path d="M 55.778125 354.702915 
L 414.128911 354.702915 
" style="fill: none; stroke: #000000; stroke-width: 0.8; stroke-linejoin: miter; stroke-linecap: square"/>
   </g>
   <g id="patch_14">
    <path d="M 55.778125 204.709335 
L 414.128911 204.709335 
" style="fill: none; stroke: #000000; stroke-width: 0.8; stroke-linejoin: miter; stroke-linecap: square"/>
   </g>
  </g>
  <g id="axes_4">
   <g id="patch_15">
    <path d="M 55.778125 522.434125 
L 414.128911 522.434125 
L 414.128911 372.440545 
L 55.778125 372.440545 
z
" style="fill: #ffffff"/>
   </g>
   <g id="matplotlib.axis_7">
    <g id="xtick_28">
     <g id="line2d_76">
      <path d="M 72.066797 522.434125 
L 72.066797 372.440545 
" clip-path="url(#p69aeabb779)" style="fill: none; stroke: #b0b0b0; stroke-width: 0.8; stroke-linecap: square"/>
     </g>
     <g id="line2d_77">
      <g>
       <use xlink:href="#mb3cccb0334" x="72.066797" y="522.434125" style="stroke: #000000; stroke-width: 0.8"/>
      </g>
     </g>
     <g id="text_27">
      <!-- 10.0 -->
      <g transform="translate(60.933985 537.032563) scale(0.1 -0.1)">
       <use xlink:href="#DejaVuSans-31"/>
       <use xlink:href="#DejaVuSans-30" x="63.623047"/>
       <use xlink:href="#DejaVuSans-2e" x="127.246094"/>
       <use xlink:href="#DejaVuSans-30" x="159.033203"/>
      </g>
     </g>
    </g>
    <g id="xtick_29">
     <g id="line2d_78">
      <path d="M 112.788477 522.434125 
L 112.788477 372.440545 
" clip-path="url(#p69aeabb779)" style="fill: none; stroke: #b0b0b0; stroke-width: 0.8; stroke-linecap: square"/>
     </g>
     <g id="line2d_79">
      <g>
       <use xlink:href="#mb3cccb0334" x="112.788477" y="522.434125" style="stroke: #000000; stroke-width: 0.8"/>
      </g>
     </g>
     <g id="text_28">
      <!-- 12.5 -->
      <g transform="translate(101.655665 537.032563) scale(0.1 -0.1)">
       <use xlink:href="#DejaVuSans-31"/>
       <use xlink:href="#DejaVuSans-32" x="63.623047"/>
       <use xlink:href="#DejaVuSans-2e" x="127.246094"/>
       <use xlink:href="#DejaVuSans-35" x="159.033203"/>
      </g>
     </g>
    </g>
    <g id="xtick_30">
     <g id="line2d_80">
      <path d="M 153.510158 522.434125 
L 153.510158 372.440545 
" clip-path="url(#p69aeabb779)" style="fill: none; stroke: #b0b0b0; stroke-width: 0.8; stroke-linecap: square"/>
     </g>
     <g id="line2d_81">
      <g>
       <use xlink:href="#mb3cccb0334" x="153.510158" y="522.434125" style="stroke: #000000; stroke-width: 0.8"/>
      </g>
     </g>
     <g id="text_29">
      <!-- 15.0 -->
      <g transform="translate(142.377345 537.032563) scale(0.1 -0.1)">
       <use xlink:href="#DejaVuSans-31"/>
       <use xlink:href="#DejaVuSans-35" x="63.623047"/>
       <use xlink:href="#DejaVuSans-2e" x="127.246094"/>
       <use xlink:href="#DejaVuSans-30" x="159.033203"/>
      </g>
     </g>
    </g>
    <g id="xtick_31">
     <g id="line2d_82">
      <path d="M 194.231838 522.434125 
L 194.231838 372.440545 
" clip-path="url(#p69aeabb779)" style="fill: none; stroke: #b0b0b0; stroke-width: 0.8; stroke-linecap: square"/>
     </g>
     <g id="line2d_83">
      <g>
       <use xlink:href="#mb3cccb0334" x="194.231838" y="522.434125" style="stroke: #000000; stroke-width: 0.8"/>
      </g>
     </g>
     <g id="text_30">
      <!-- 17.5 -->
      <g transform="translate(183.099025 537.032563) scale(0.1 -0.1)">
       <use xlink:href="#DejaVuSans-31"/>
       <use xlink:href="#DejaVuSans-37" x="63.623047"/>
       <use xlink:href="#DejaVuSans-2e" x="127.246094"/>
       <use xlink:href="#DejaVuSans-35" x="159.033203"/>
      </g>
     </g>
    </g>
    <g id="xtick_32">
     <g id="line2d_84">
      <path d="M 234.953518 522.434125 
L 234.953518 372.440545 
" clip-path="url(#p69aeabb779)" style="fill: none; stroke: #b0b0b0; stroke-width: 0.8; stroke-linecap: square"/>
     </g>
     <g id="line2d_85">
      <g>
       <use xlink:href="#mb3cccb0334" x="234.953518" y="522.434125" style="stroke: #000000; stroke-width: 0.8"/>
      </g>
     </g>
     <g id="text_31">
      <!-- 20.0 -->
      <g transform="translate(223.820706 537.032563) scale(0.1 -0.1)">
       <use xlink:href="#DejaVuSans-32"/>
       <use xlink:href="#DejaVuSans-30" x="63.623047"/>
       <use xlink:href="#DejaVuSans-2e" x="127.246094"/>
       <use xlink:href="#DejaVuSans-30" x="159.033203"/>
      </g>
     </g>
    </g>
    <g id="xtick_33">
     <g id="line2d_86">
      <path d="M 275.675198 522.434125 
L 275.675198 372.440545 
" clip-path="url(#p69aeabb779)" style="fill: none; stroke: #b0b0b0; stroke-width: 0.8; stroke-linecap: square"/>
     </g>
     <g id="line2d_87">
      <g>
       <use xlink:href="#mb3cccb0334" x="275.675198" y="522.434125" style="stroke: #000000; stroke-width: 0.8"/>
      </g>
     </g>
     <g id="text_32">
      <!-- 22.5 -->
      <g transform="translate(264.542386 537.032563) scale(0.1 -0.1)">
       <use xlink:href="#DejaVuSans-32"/>
       <use xlink:href="#DejaVuSans-32" x="63.623047"/>
       <use xlink:href="#DejaVuSans-2e" x="127.246094"/>
       <use xlink:href="#DejaVuSans-35" x="159.033203"/>
      </g>
     </g>
    </g>
    <g id="xtick_34">
     <g id="line2d_88">
      <path d="M 316.396879 522.434125 
L 316.396879 372.440545 
" clip-path="url(#p69aeabb779)" style="fill: none; stroke: #b0b0b0; stroke-width: 0.8; stroke-linecap: square"/>
     </g>
     <g id="line2d_89">
      <g>
       <use xlink:href="#mb3cccb0334" x="316.396879" y="522.434125" style="stroke: #000000; stroke-width: 0.8"/>
      </g>
     </g>
     <g id="text_33">
      <!-- 25.0 -->
      <g transform="translate(305.264066 537.032563) scale(0.1 -0.1)">
       <use xlink:href="#DejaVuSans-32"/>
       <use xlink:href="#DejaVuSans-35" x="63.623047"/>
       <use xlink:href="#DejaVuSans-2e" x="127.246094"/>
       <use xlink:href="#DejaVuSans-30" x="159.033203"/>
      </g>
     </g>
    </g>
    <g id="xtick_35">
     <g id="line2d_90">
      <path d="M 357.118559 522.434125 
L 357.118559 372.440545 
" clip-path="url(#p69aeabb779)" style="fill: none; stroke: #b0b0b0; stroke-width: 0.8; stroke-linecap: square"/>
     </g>
     <g id="line2d_91">
      <g>
       <use xlink:href="#mb3cccb0334" x="357.118559" y="522.434125" style="stroke: #000000; stroke-width: 0.8"/>
      </g>
     </g>
     <g id="text_34">
      <!-- 27.5 -->
      <g transform="translate(345.985747 537.032563) scale(0.1 -0.1)">
       <use xlink:href="#DejaVuSans-32"/>
       <use xlink:href="#DejaVuSans-37" x="63.623047"/>
       <use xlink:href="#DejaVuSans-2e" x="127.246094"/>
       <use xlink:href="#DejaVuSans-35" x="159.033203"/>
      </g>
     </g>
    </g>
    <g id="xtick_36">
     <g id="line2d_92">
      <path d="M 397.840239 522.434125 
L 397.840239 372.440545 
" clip-path="url(#p69aeabb779)" style="fill: none; stroke: #b0b0b0; stroke-width: 0.8; stroke-linecap: square"/>
     </g>
     <g id="line2d_93">
      <g>
       <use xlink:href="#mb3cccb0334" x="397.840239" y="522.434125" style="stroke: #000000; stroke-width: 0.8"/>
      </g>
     </g>
     <g id="text_35">
      <!-- 30.0 -->
      <g transform="translate(386.707427 537.032563) scale(0.1 -0.1)">
       <use xlink:href="#DejaVuSans-33"/>
       <use xlink:href="#DejaVuSans-30" x="63.623047"/>
       <use xlink:href="#DejaVuSans-2e" x="127.246094"/>
       <use xlink:href="#DejaVuSans-30" x="159.033203"/>
      </g>
     </g>
    </g>
    <g id="text_36">
     <!-- inverse temperature ($\beta$) (eV$^{-1}$) -->
     <g transform="translate(157.453518 552.11225) scale(0.1 -0.1)">
      <defs>
       <path id="DejaVuSans-76" d="M 191 3500 
L 800 3500 
L 1894 563 
L 2988 3500 
L 3597 3500 
L 2284 0 
L 1503 0 
L 191 3500 
z
" transform="scale(0.015625)"/>
       <path id="DejaVuSans-73" d="M 2834 3397 
L 2834 2853 
Q 2591 2978 2328 3040 
Q 2066 3103 1784 3103 
Q 1356 3103 1142 2972 
Q 928 2841 928 2578 
Q 928 2378 1081 2264 
Q 1234 2150 1697 2047 
L 1894 2003 
Q 2506 1872 2764 1633 
Q 3022 1394 3022 966 
Q 3022 478 2636 193 
Q 2250 -91 1575 -91 
Q 1294 -91 989 -36 
Q 684 19 347 128 
L 347 722 
Q 666 556 975 473 
Q 1284 391 1588 391 
Q 1994 391 2212 530 
Q 2431 669 2431 922 
Q 2431 1156 2273 1281 
Q 2116 1406 1581 1522 
L 1381 1569 
Q 847 1681 609 1914 
Q 372 2147 372 2553 
Q 372 3047 722 3315 
Q 1072 3584 1716 3584 
Q 2034 3584 2315 3537 
Q 2597 3491 2834 3397 
z
" transform="scale(0.015625)"/>
       <path id="DejaVuSans-Oblique-3b2" d="M 872 216 
L 572 -1331 
L -6 -1331 
L 928 3478 
Q 1206 4903 2538 4903 
Q 3888 4903 3659 3700 
Q 3503 2844 2894 2531 
Q 3713 2250 3553 1416 
Q 3272 -69 1759 -66 
Q 1097 -63 872 216 
z
M 1019 966 
Q 1259 422 1875 425 
Q 2775 425 2966 1406 
Q 3138 2288 1675 2219 
L 1778 2750 
Q 2909 2731 3106 3750 
Q 3241 4438 2509 4434 
Q 1691 4434 1503 3459 
L 1019 966 
z
" transform="scale(0.015625)"/>
      </defs>
      <use xlink:href="#DejaVuSans-69" transform="translate(0 0.684375)"/>
      <use xlink:href="#DejaVuSans-6e" transform="translate(27.783203 0.684375)"/>
      <use xlink:href="#DejaVuSans-76" transform="translate(91.162109 0.684375)"/>
      <use xlink:href="#DejaVuSans-65" transform="translate(150.341797 0.684375)"/>
      <use xlink:href="#DejaVuSans-72" transform="translate(211.865234 0.684375)"/>
      <use xlink:href="#DejaVuSans-73" transform="translate(252.978516 0.684375)"/>
      <use xlink:href="#DejaVuSans-65" transform="translate(305.078125 0.684375)"/>
      <use xlink:href="#DejaVuSans-20" transform="translate(366.601562 0.684375)"/>
      <use xlink:href="#DejaVuSans-74" transform="translate(398.388672 0.684375)"/>
      <use xlink:href="#DejaVuSans-65" transform="translate(437.597656 0.684375)"/>
      <use xlink:href="#DejaVuSans-6d" transform="translate(499.121094 0.684375)"/>
      <use xlink:href="#DejaVuSans-70" transform="translate(596.533203 0.684375)"/>
      <use xlink:href="#DejaVuSans-65" transform="translate(660.009766 0.684375)"/>
      <use xlink:href="#DejaVuSans-72" transform="translate(721.533203 0.684375)"/>
      <use xlink:href="#DejaVuSans-61" transform="translate(762.646484 0.684375)"/>
      <use xlink:href="#DejaVuSans-74" transform="translate(823.925781 0.684375)"/>
      <use xlink:href="#DejaVuSans-75" transform="translate(863.134766 0.684375)"/>
      <use xlink:href="#DejaVuSans-72" transform="translate(926.513672 0.684375)"/>
      <use xlink:href="#DejaVuSans-65" transform="translate(967.626953 0.684375)"/>
      <use xlink:href="#DejaVuSans-20" transform="translate(1029.150391 0.684375)"/>
      <use xlink:href="#DejaVuSans-28" transform="translate(1060.9375 0.684375)"/>
      <use xlink:href="#DejaVuSans-Oblique-3b2" transform="translate(1099.951172 0.684375)"/>
      <use xlink:href="#DejaVuSans-29" transform="translate(1163.769531 0.684375)"/>
      <use xlink:href="#DejaVuSans-20" transform="translate(1202.783203 0.684375)"/>
      <use xlink:href="#DejaVuSans-28" transform="translate(1234.570312 0.684375)"/>
      <use xlink:href="#DejaVuSans-65" transform="translate(1273.583984 0.684375)"/>
      <use xlink:href="#DejaVuSans-56" transform="translate(1335.107422 0.684375)"/>
      <use xlink:href="#DejaVuSans-2212" transform="translate(1404.472656 38.965625) scale(0.7)"/>
      <use xlink:href="#DejaVuSans-31" transform="translate(1463.125 38.965625) scale(0.7)"/>
      <use xlink:href="#DejaVuSans-29" transform="translate(1510.395508 0.684375)"/>
     </g>
    </g>
   </g>
   <g id="matplotlib.axis_8">
    <g id="ytick_13">
     <g id="line2d_94">
      <path d="M 55.778125 510.367709 
L 414.128911 510.367709 
" clip-path="url(#p69aeabb779)" style="fill: none; stroke: #b0b0b0; stroke-width: 0.8; stroke-linecap: square"/>
     </g>
     <g id="line2d_95">
      <g>
       <use xlink:href="#m4d8972ce3d" x="55.778125" y="510.367709" style="stroke: #000000; stroke-width: 0.8"/>
      </g>
     </g>
     <g id="text_37">
      <!-- 8 -->
      <g transform="translate(34.035938 514.166928) scale(0.1 -0.1)">
       <use xlink:href="#DejaVuSans-2212"/>
       <use xlink:href="#DejaVuSans-38" x="83.789062"/>
      </g>
     </g>
    </g>
    <g id="ytick_14">
     <g id="line2d_96">
      <path d="M 55.778125 471.626049 
L 414.128911 471.626049 
" clip-path="url(#p69aeabb779)" style="fill: none; stroke: #b0b0b0; stroke-width: 0.8; stroke-linecap: square"/>
     </g>
     <g id="line2d_97">
      <g>
       <use xlink:href="#m4d8972ce3d" x="55.778125" y="471.626049" style="stroke: #000000; stroke-width: 0.8"/>
      </g>
     </g>
     <g id="text_38">
      <!-- 7 -->
      <g transform="translate(34.035938 475.425267) scale(0.1 -0.1)">
       <use xlink:href="#DejaVuSans-2212"/>
       <use xlink:href="#DejaVuSans-37" x="83.789062"/>
      </g>
     </g>
    </g>
    <g id="ytick_15">
     <g id="line2d_98">
      <path d="M 55.778125 432.884388 
L 414.128911 432.884388 
" clip-path="url(#p69aeabb779)" style="fill: none; stroke: #b0b0b0; stroke-width: 0.8; stroke-linecap: square"/>
     </g>
     <g id="line2d_99">
      <g>
       <use xlink:href="#m4d8972ce3d" x="55.778125" y="432.884388" style="stroke: #000000; stroke-width: 0.8"/>
      </g>
     </g>
     <g id="text_39">
      <!-- 6 -->
      <g transform="translate(34.035938 436.683607) scale(0.1 -0.1)">
       <use xlink:href="#DejaVuSans-2212"/>
       <use xlink:href="#DejaVuSans-36" x="83.789062"/>
      </g>
     </g>
    </g>
    <g id="ytick_16">
     <g id="line2d_100">
      <path d="M 55.778125 394.142727 
L 414.128911 394.142727 
" clip-path="url(#p69aeabb779)" style="fill: none; stroke: #b0b0b0; stroke-width: 0.8; stroke-linecap: square"/>
     </g>
     <g id="line2d_101">
      <g>
       <use xlink:href="#m4d8972ce3d" x="55.778125" y="394.142727" style="stroke: #000000; stroke-width: 0.8"/>
      </g>
     </g>
     <g id="text_40">
      <!-- 5 -->
      <g transform="translate(34.035938 397.941946) scale(0.1 -0.1)">
       <use xlink:href="#DejaVuSans-2212"/>
       <use xlink:href="#DejaVuSans-35" x="83.789062"/>
      </g>
     </g>
    </g>
    <g id="text_41">
     <!-- formation volume $\Omega_{form}$ ($\AA^3$) -->
     <g transform="translate(27.95625 517.537335) rotate(-90) scale(0.1 -0.1)">
      <defs>
       <path id="DejaVuSans-3a9" d="M 4647 556 
L 4647 0 
L 2772 0 
L 2772 556 
Q 3325 859 3634 1378 
Q 3944 1897 3944 2528 
Q 3944 3278 3531 3731 
Q 3119 4184 2444 4184 
Q 1769 4184 1355 3729 
Q 941 3275 941 2528 
Q 941 1897 1250 1378 
Q 1563 859 2119 556 
L 2119 0 
L 244 0 
L 244 556 
L 1241 556 
Q 747 991 519 1456 
Q 294 1922 294 2497 
Q 294 3491 894 4106 
Q 1491 4722 2444 4722 
Q 3391 4722 3994 4106 
Q 4594 3494 4594 2528 
Q 4594 1922 4372 1459 
Q 4150 997 3647 556 
L 4647 556 
z
" transform="scale(0.015625)"/>
       <path id="DejaVuSans-Oblique-c5" d="M 3188 5081 
Q 3188 5278 3048 5417 
Q 2909 5556 2713 5556 
Q 2513 5556 2377 5420 
Q 2241 5284 2241 5081 
Q 2241 4884 2377 4746 
Q 2513 4609 2713 4609 
Q 2909 4609 3048 4746 
Q 3188 4884 3188 5081 
z
M 2203 4397 
Q 2034 4513 1945 4689 
Q 1856 4866 1856 5081 
Q 1856 5438 2106 5689 
Q 2356 5941 2713 5941 
Q 3069 5941 3320 5689 
Q 3572 5438 3572 5081 
Q 3572 4834 3458 4643 
Q 3344 4453 3128 4341 
L 3938 0 
L 3278 0 
L 3084 1197 
L 984 1197 
L 325 0 
L -341 0 
L 2203 4397 
z
M 2584 4044 
L 1275 1722 
L 2988 1722 
L 2584 4044 
z
" transform="scale(0.015625)"/>
      </defs>
      <use xlink:href="#DejaVuSans-66" transform="translate(0 0.171875)"/>
      <use xlink:href="#DejaVuSans-6f" transform="translate(35.205078 0.171875)"/>
      <use xlink:href="#DejaVuSans-72" transform="translate(96.386719 0.171875)"/>
      <use xlink:href="#DejaVuSans-6d" transform="translate(137.5 0.171875)"/>
      <use xlink:href="#DejaVuSans-61" transform="translate(234.912109 0.171875)"/>
      <use xlink:href="#DejaVuSans-74" transform="translate(296.191406 0.171875)"/>
      <use xlink:href="#DejaVuSans-69" transform="translate(335.400391 0.171875)"/>
      <use xlink:href="#DejaVuSans-6f" transform="translate(363.183594 0.171875)"/>
      <use xlink:href="#DejaVuSans-6e" transform="translate(424.365234 0.171875)"/>
      <use xlink:href="#DejaVuSans-20" transform="translate(487.744141 0.171875)"/>
      <use xlink:href="#DejaVuSans-76" transform="translate(519.53125 0.171875)"/>
      <use xlink:href="#DejaVuSans-6f" transform="translate(578.710938 0.171875)"/>
      <use xlink:href="#DejaVuSans-6c" transform="translate(639.892578 0.171875)"/>
      <use xlink:href="#DejaVuSans-75" transform="translate(667.675781 0.171875)"/>
      <use xlink:href="#DejaVuSans-6d" transform="translate(731.054688 0.171875)"/>
      <use xlink:href="#DejaVuSans-65" transform="translate(828.466797 0.171875)"/>
      <use xlink:href="#DejaVuSans-20" transform="translate(889.990234 0.171875)"/>
      <use xlink:href="#DejaVuSans-3a9" transform="translate(921.777344 0.171875)"/>
      <use xlink:href="#DejaVuSans-Oblique-66" transform="translate(999.150391 -16.234375) scale(0.7)"/>
      <use xlink:href="#DejaVuSans-Oblique-6f" transform="translate(1023.793945 -16.234375) scale(0.7)"/>
      <use xlink:href="#DejaVuSans-Oblique-72" transform="translate(1066.621094 -16.234375) scale(0.7)"/>
      <use xlink:href="#DejaVuSans-Oblique-6d" transform="translate(1095.400391 -16.234375) scale(0.7)"/>
      <use xlink:href="#DejaVuSans-20" transform="translate(1166.323242 0.171875)"/>
      <use xlink:href="#DejaVuSans-28" transform="translate(1198.110352 0.171875)"/>
      <use xlink:href="#DejaVuSans-Oblique-c5" transform="translate(1237.124023 0.171875)"/>
      <use xlink:href="#DejaVuSans-33" transform="translate(1315.33806 38.453125) scale(0.7)"/>
      <use xlink:href="#DejaVuSans-29" transform="translate(1362.608568 0.171875)"/>
     </g>
    </g>
   </g>
   <g id="line2d_102">
    <path d="M 72.066797 379.258435 
L 103.995787 382.7806 
L 129.343496 385.357407 
L 152.084756 387.448195 
L 173.685696 389.211765 
L 194.99341 390.728069 
L 216.626929 392.043507 
L 239.140126 393.187733 
L 263.119449 394.180901 
L 289.183931 395.03438 
L 318.180667 395.756988 
L 351.152236 396.350966 
L 389.597347 396.814724 
L 397.840239 396.888908 
L 397.840239 396.888908 
" clip-path="url(#p69aeabb779)" style="fill: none; stroke: #f08080; stroke-width: 1.5; stroke-linecap: square"/>
   </g>
   <g id="line2d_103">
    <path d="M 72.066797 442.027554 
L 98.978375 458.845459 
L 109.664812 465.219476 
L 118.982864 470.522364 
L 127.584143 475.164124 
L 135.761875 479.326211 
L 143.64638 483.091792 
L 151.400564 486.549683 
L 159.057005 489.721605 
L 166.713447 492.653146 
L 174.402469 495.359047 
L 182.189233 497.862864 
L 190.106319 500.173921 
L 198.186309 502.300262 
L 206.494362 504.255958 
L 215.095641 506.050628 
L 224.022726 507.68447 
L 233.340778 509.162407 
L 243.14754 510.490765 
L 253.508171 511.667915 
L 264.552995 512.696969 
L 276.444915 513.578643 
L 289.346834 514.308908 
L 303.519396 514.884855 
L 319.353568 515.301538 
L 337.435803 515.549583 
L 358.776097 515.612913 
L 385.492191 515.459115 
L 397.840239 515.331246 
L 397.840239 515.331246 
" clip-path="url(#p69aeabb779)" style="fill: none; stroke-dasharray: 5.55,2.4; stroke-dashoffset: 0; stroke: #1e90ff; stroke-width: 1.5"/>
   </g>
   <g id="patch_16">
    <path d="M 55.778125 522.434125 
L 55.778125 372.440545 
" style="fill: none; stroke: #000000; stroke-width: 0.8; stroke-linejoin: miter; stroke-linecap: square"/>
   </g>
   <g id="patch_17">
    <path d="M 414.128911 522.434125 
L 414.128911 372.440545 
" style="fill: none; stroke: #000000; stroke-width: 0.8; stroke-linejoin: miter; stroke-linecap: square"/>
   </g>
   <g id="patch_18">
    <path d="M 55.778125 522.434125 
L 414.128911 522.434125 
" style="fill: none; stroke: #000000; stroke-width: 0.8; stroke-linejoin: miter; stroke-linecap: square"/>
   </g>
   <g id="patch_19">
    <path d="M 55.778125 372.440545 
L 414.128911 372.440545 
" style="fill: none; stroke: #000000; stroke-width: 0.8; stroke-linejoin: miter; stroke-linecap: square"/>
   </g>
  </g>
 </g>
 <defs>
  <clipPath id="p5bb0b934e7">
   <rect x="55.778125" y="36.978125" width="358.350786" height="149.99358"/>
  </clipPath>
  <clipPath id="p86d3fb60f7">
   <rect x="55.778125" y="204.709335" width="358.350786" height="149.99358"/>
  </clipPath>
  <clipPath id="p69aeabb779">
   <rect x="55.778125" y="372.440545" width="358.350786" height="149.99358"/>
  </clipPath>
 </defs>
</svg>
